<?xml version="1.0" encoding="utf-8"?>
<!-- Generator: Adobe Illustrator 17.1.0, SVG Export Plug-In . SVG Version: 6.00 Build 0)  -->
<!DOCTYPE svg PUBLIC "-//W3C//DTD SVG 1.1//EN" "http://www.w3.org/Graphics/SVG/1.1/DTD/svg11.dtd">
<svg version="1.1" id="Calque_1" xmlns="http://www.w3.org/2000/svg" xmlns:xlink="http://www.w3.org/1999/xlink" x="0px" y="0px"
	 viewBox="0 0 841.9 595.3" enable-background="new 0 0 841.9 595.3" xml:space="preserve">
<image overflow="visible" enable-background="new    " width="1213" height="614" xlink:href="2BFF12EE6089E8B8.png"  transform="matrix(0.6266 0 0 0.6266 41.219 105.2706)">
</image>
<g id="XMLID_7_">
	<g id="XMLID_26_">
		<line id="XMLID_8_" fill="none" x1="134.4" y1="528" x2="134.4" y2="535.6"/>
		<rect id="XMLID_25_" x="134.2" y="528" fill="#FFFFFF" width="0.4" height="7.7"/>
	</g>
	<g id="XMLID_24_">
		<line id="XMLID_22_" fill="none" x1="138.2" y1="531.8" x2="130.6" y2="531.8"/>
		<rect id="XMLID_23_" x="130.6" y="531.6" fill="#FFFFFF" width="7.7" height="0.4"/>
	</g>
</g>
<g id="XMLID_1_">
	<path id="XMLID_27_" fill="#FFFFFF" stroke="#FFFFFF" stroke-miterlimit="10" d="M465.4,391.4c-4.7,0-8.5-3.8-8.5-8.5
		s3.8-8.5,8.5-8.5s8.5,3.8,8.5,8.5S470.1,391.4,465.4,391.4z M465.4,375c-4.4,0-7.9,3.6-7.9,7.9c0,4.4,3.6,7.9,7.9,7.9
		c4.4,0,7.9-3.6,7.9-7.9C473.3,378.5,469.7,375,465.4,375z"/>
	<g id="XMLID_9_">
		
			<line id="XMLID_21_" fill="none" stroke="#FFFFFF" stroke-width="2" stroke-miterlimit="10" x1="465.4" y1="378.6" x2="465.4" y2="387.1"/>
		
			<line id="XMLID_10_" fill="none" stroke="#FFFFFF" stroke-width="2" stroke-miterlimit="10" x1="469.6" y1="382.9" x2="461" y2="382.9"/>
	</g>
</g>
<g id="XMLID_2_">
	<path id="XMLID_6_" fill="#FFFFFF" stroke="#FFFFFF" stroke-miterlimit="10" d="M521.1,224.5c-4.7,0-8.5-3.8-8.5-8.5
		s3.8-8.5,8.5-8.5s8.5,3.8,8.5,8.5S525.8,224.5,521.1,224.5z M521.1,208c-4.4,0-7.9,3.6-7.9,7.9c0,4.4,3.6,7.9,7.9,7.9
		c4.4,0,7.9-3.6,7.9-7.9C529,211.5,525.5,208,521.1,208z"/>
	<g id="XMLID_3_">
		
			<line id="XMLID_5_" fill="none" stroke="#FFFFFF" stroke-width="2" stroke-miterlimit="10" x1="521.1" y1="211.7" x2="521.1" y2="220.2"/>
		
			<line id="XMLID_4_" fill="none" stroke="#FFFFFF" stroke-width="2" stroke-miterlimit="10" x1="525.4" y1="215.9" x2="516.9" y2="215.9"/>
	</g>
</g>
</svg>
