<?xml version="1.0" encoding="utf-8"?>
<!-- Generator: Adobe Illustrator 16.0.0, SVG Export Plug-In . SVG Version: 6.00 Build 0)  -->
<!DOCTYPE svg [
	<!ENTITY ns_flows "http://ns.adobe.com/Flows/1.0/">
	<!ENTITY ns_extend "http://ns.adobe.com/Extensibility/1.0/">
	<!ENTITY ns_ai "http://ns.adobe.com/AdobeIllustrator/10.0/">
	<!ENTITY ns_graphs "http://ns.adobe.com/Graphs/1.0/">
]>
<svg version="1.2" baseProfile="tiny" id="Calque_1" xmlns:x="&ns_extend;" xmlns:i="&ns_ai;" xmlns:graph="&ns_graphs;"
	 xmlns="http://www.w3.org/2000/svg" xmlns:xlink="http://www.w3.org/1999/xlink" xmlns:a="http://ns.adobe.com/AdobeSVGViewerExtensions/3.0/"
	 x="0px" y="0px" width="425.2px" height="425.2px" viewBox="0 0 425.2 425.2" xml:space="preserve">
<path fill="#FFFFFF" d="M52.5,188c0,70.9,57.7,128.6,128.6,128.6c29.3,0,56.4-9.9,78-26.5l81.3,80c3.3,3.3,7.6,4.9,11.9,4.9
	c4.4,0,8.8-1.7,12.1-5.1c6.6-6.7,6.5-17.5-0.2-24l-81.1-79.8c16.6-21.7,26.5-48.8,26.5-78.1c0-70.9-57.7-128.6-128.6-128.6
	S52.5,117.1,52.5,188z M86.5,188c0-52.2,42.5-94.6,94.6-94.6s94.6,42.4,94.6,94.6c0,52.2-42.5,94.6-94.6,94.6S86.5,240.2,86.5,188z"
	/>
<g>
</g>
<g>
</g>
<g>
</g>
<g>
</g>
<g>
</g>
<g>
</g>
</svg>
