<?xml version="1.0" encoding="utf-8"?>
<!-- Generator: Adobe Illustrator 19.2.1, SVG Export Plug-In . SVG Version: 6.00 Build 0)  -->
<svg version="1.1" id="Calque_1" xmlns="http://www.w3.org/2000/svg" xmlns:xlink="http://www.w3.org/1999/xlink" x="0px" y="0px"
	 viewBox="0 0 462 104.5" style="enable-background:new 0 0 462 104.5;" xml:space="preserve">
<style type="text/css">
	.st0{fill:#FBFAFA;}
</style>
<g>
	<path class="st0" d="M75.3,44.5c-0.6-0.5-1.4-0.7-2.4-0.7s-1.8,0.2-2.4,0.7c-1.4,1.1-1.9,4-1.9,9.7s0.5,8.6,1.9,9.7
		c0.6,0.5,1.4,0.7,2.4,0.7s1.8-0.2,2.4-0.7c1.4-1.1,1.9-4.1,1.9-9.7S76.6,45.6,75.3,44.5z"/>
	<path class="st0" d="M370.6,54.9c-1.1,1-1.4,2.5-1.4,5.2s0.4,4.1,2,4.1c1.1,0,2.4-0.8,3.3-2.5c0.7-1.4,1.1-3.2,1.1-5.5v-3.6
		c-0.8,0.4-1.7,0.7-2.6,1S371.2,54.3,370.6,54.9z"/>
	<path class="st0" d="M158.9,54.9c-1.1,1-1.4,2.5-1.4,5.2s0.4,4.1,2,4.1c1.1,0,2.4-0.8,3.3-2.5c0.7-1.4,1.1-3.2,1.1-5.5v-3.6
		c-0.8,0.4-1.7,0.7-2.6,1S159.5,54.3,158.9,54.9z"/>
	<path class="st0" d="M47.8,35.2c-3.2,0-5.2,3.1-5.2,10.2c0,6.8,1.9,10.1,5.2,10.1c2.6,0,3.8-1.2,3.8-10.1
		C51.6,36.4,50.4,35.2,47.8,35.2z"/>
	<path class="st0" d="M0-0.3v104.8h462V-0.3H0z M394.7,32c1.8,0,3.6,1.2,3.6,3.6s-1.8,3.6-3.6,3.6s-3.6-1.2-3.6-3.6
		S392.9,32,394.7,32z M183,32c1.8,0,3.6,1.2,3.6,3.6s-1.8,3.6-3.6,3.6s-3.6-1.2-3.6-3.6C179.3,33.2,181.2,32,183,32z M48.7,56.9
		c-3.3,0-5.2-2-6.1-5h-0.1c0,0.9,0.2,3.5,0.2,5.1v7.9c0,0.4,0.1,0.6,0.5,0.7l4.7,0.3c0.4,0,0.6,0.3,0.6,0.7s-0.3,0.7-0.6,0.7h-0.1
		c-1.9,0-6.3-0.1-8.2-0.1c-1.7,0-5.8,0.1-7.4,0.1l0,0c-0.3,0-0.6-0.3-0.6-0.7c0-0.3,0.3-0.7,0.7-0.7l3.6-0.2c0.4,0,0.7-0.3,0.7-0.7
		V37.2c0-0.8-0.5-1.3-1.4-1.3l-3.3-0.1c-0.3,0-0.6-0.3-0.6-0.7c0-0.3,0.2-0.7,0.6-0.7c2.2,0,7.8-0.1,10.2-0.1c0.4,0,0.6,0.2,0.6,0.6
		l-0.2,3.9h0.1c0.8-3,2.8-5.1,6-5.1c4.1,0,9.7,5.4,9.7,11.7C58.3,51.4,53.7,56.9,48.7,56.9z M78.4,64.1c-1.5,1-3.9,1.7-5.5,1.7
		c-2.2,0-4.1-0.7-5.5-1.7c-4-2.6-5.5-6.2-5.5-10s1.6-7.4,5.5-9.9c1.3-0.8,3.5-1.7,5.5-1.7s4,0.7,5.5,1.7c4,2.6,5.5,6.2,5.5,9.9
		S82.3,61.5,78.4,64.1z M103.3,50.9c-2,0-3.1-1.5-3.1-2.9c0-0.6,0.1-1.1,0.4-1.5c0.4-0.6,0.8-0.8,1.3-1.2c0.3-0.2,0.6-0.5,0.6-0.8
		s-0.2-0.8-1.3-0.8c-3.1,0-4.5,4-4.5,6.8v12.6c0,0.4,0.1,0.6,0.7,0.6l2.7,0.1c0.4,0,0.7,0.3,0.7,0.6c0,0.4-0.3,0.7-0.6,0.7h-0.1
		c-1.5,0-4.7-0.1-6.5-0.1c-2,0-4.1,0.1-6.1,0.1h-0.1c-0.3,0-0.6-0.3-0.6-0.7c0-0.3,0.2-0.6,0.7-0.6l2.5-0.1c0.5,0,0.6-0.1,0.6-0.6
		v-17c0-0.8-0.4-1.3-1.3-1.3l-2.7-0.2c-0.4,0-0.6-0.3-0.6-0.7c0-0.3,0.2-0.7,0.6-0.7c2.2,0,7.1-0.2,9.5-0.4c0.4,0,0.6,0.2,0.6,0.6
		v0.3L96.5,47h0.1c0.8-3.2,3-4.5,5.3-4.5c3.4,0,5,2.3,5,4.5C106.9,49,105.6,50.9,103.3,50.9z M125.9,61.4c-0.9,3.4-2.8,4.4-6.1,4.4
		c-3.7,0-7.1-1.7-7.1-6v-0.4c0-4.9,0.1-10.4,0.1-14.1v-0.4c0,0,0-0.1-0.1-0.1h-4.2c-0.3,0-0.5-0.2-0.5-0.5c0-0.2,0.1-0.4,0.5-0.5
		l1.7-0.3c2.7-0.4,4.4-2.3,6.3-8.4l0.8-2.6c0.2-0.6,0.6-0.8,0.9-0.8c0.4,0,0.7,0.3,0.7,0.8v10.6c0,0.1,0,0.2,0.1,0.2h0.2
		c1.9,0,4.2-0.1,5.5-0.1h0.1c0.4,0,0.8,0.4,0.8,0.9c0,0.4-0.3,0.8-0.8,0.8h-0.1c-1.3,0-3.7-0.1-5.5-0.1H119c-0.1,0-0.1,0-0.1,0.1
		v15.5c0,1.9,0.7,3.7,2.8,3.7c1.9,0,2.5-1.4,2.9-3c0.3-1.4,0.5-3.3,0.5-6.2c0-0.3,0.3-0.6,0.6-0.6c0.3,0,0.5,0.2,0.6,0.5
		c0,0.4,0,1,0,1.6C126.4,58.5,126.2,60.4,125.9,61.4z M145.3,50.9c-2,0-3.1-1.5-3.1-2.9c0-0.6,0.1-1.1,0.4-1.5
		c0.4-0.6,0.8-0.8,1.3-1.2c0.3-0.2,0.6-0.5,0.6-0.8s-0.2-0.8-1.3-0.8c-3.1,0-4.5,4-4.5,6.8v12.6c0,0.4,0.1,0.6,0.7,0.6l2.7,0.1
		c0.4,0,0.7,0.3,0.7,0.6c0,0.4-0.3,0.7-0.6,0.7h-0.1c-1.5,0-4.7-0.1-6.5-0.1c-2,0-4.1,0.1-6.1,0.1l0,0c-0.3,0-0.6-0.3-0.6-0.7
		c0-0.3,0.2-0.6,0.7-0.6l2.5-0.1c0.5,0,0.6-0.1,0.6-0.6v-17c0-0.8-0.4-1.3-1.3-1.3l-2.7-0.1c-0.4,0-0.6-0.3-0.6-0.7
		c0-0.3,0.2-0.7,0.6-0.7c2.2,0,7.1-0.2,9.5-0.4c0.4,0,0.6,0.2,0.6,0.6v0.3l-0.1,3.3h0.1c0.8-3.2,3-4.5,5.3-4.5c3.4,0,5,2.3,5,4.5
		C149,49,147.7,50.9,145.3,50.9z M174.6,62.7c-0.7,2.3-2,3-4.9,3c-1.4,0-2.8-0.2-3.7-0.6c-1.3-0.7-2.2-1.9-2.2-3.7h-0.1
		c-0.8,3-3.4,4.3-6.3,4.3c-4,0-6.1-2.3-6.1-5.2c0-3.1,1.8-5.1,4.4-6.1c2.3-0.9,5.5-1.7,6.9-2.2c1.2-0.4,1.2-0.8,1.2-1.5v-3.1
		c0-2.9-0.6-4-3.8-4c-1.9,0-4,0.6-4,1.4c0,0.4,0.3,0.5,0.6,0.7l0.4,0.2c1,0.7,1.6,1.7,1.6,2.7c0,2.3-1.7,3.3-3.5,3.3
		s-3.5-1.2-3.5-3.5c0-1.5,0.8-3.2,2.8-4.4c1.7-1.1,4.2-1.7,7-1.7c5.6,0,8.7,2.2,8.7,6.1v13.7c0,1.3,0.5,1.9,1.7,1.9
		c2.1,0,2.1-3.7,2.1-5c0-1.6,0-2.8,0-3c0-0.3,0.2-0.5,0.5-0.5c0.2,0,0.5,0.2,0.5,0.5c0.1,0.9,0.2,2.2,0.2,3.1
		C175,60.4,174.9,61.6,174.6,62.7z M189.4,65.1L189.4,65.1c-1.6,0-4.2-0.1-5.9-0.1c-2,0-4.4,0.1-6.4,0.1l0,0c-0.3,0-0.6-0.3-0.6-0.7
		c0-0.3,0.2-0.6,0.7-0.6l2.5-0.1c0.4,0,0.5-0.2,0.5-0.6v-17c0-0.8-0.3-1.3-1.2-1.3l-2.7-0.1c-0.4,0-0.6-0.4-0.6-0.7s0.2-0.7,0.6-0.7
		c2.9,0,7.5-0.1,9.6-0.4c0.4,0,0.5,0.2,0.5,0.6v19.6c0,0.4,0.2,0.6,0.6,0.6l2.4,0.1c0.4,0,0.7,0.3,0.7,0.6
		C189.9,64.8,189.7,65.1,189.4,65.1z M208.5,61.4c-0.9,3.4-2.8,4.4-6.1,4.4c-3.7,0-7.1-1.7-7.1-6v-0.4c0-4.9,0.1-10.4,0.1-14.1v-0.4
		c0,0,0-0.1-0.1-0.1h-4.1c-0.3,0-0.5-0.2-0.5-0.5c0-0.2,0.1-0.4,0.5-0.5l1.7-0.3c2.7-0.4,4.4-2.3,6.3-8.4l0.8-2.6
		c0.2-0.6,0.6-0.8,0.9-0.8c0.4,0,0.7,0.3,0.7,0.8v10.6c0,0.1,0,0.2,0.1,0.2h0.2c1.9,0,4.2-0.1,5.5-0.1h0.1c0.4,0,0.8,0.4,0.8,0.9
		c0,0.4-0.3,0.8-0.8,0.8h-0.1c-1.3,0-3.7-0.1-5.5-0.1h-0.2c-0.1,0-0.1,0-0.1,0.1v15.5c0,1.9,0.7,3.7,2.8,3.7c1.9,0,2.5-1.4,2.9-3
		c0.3-1.4,0.5-3.3,0.5-6.2c0-0.3,0.3-0.6,0.6-0.6s0.5,0.2,0.6,0.5c0,0.4,0,1,0,1.6C209,58.5,208.7,60.4,208.5,61.4z M228.1,64
		c-1.4,1.2-3.4,1.8-5.6,1.8c-1.9,0-3.8-0.6-5.4-1.7c-0.6-0.5-0.8-0.6-1.1-0.6s-0.7,0.3-1,0.7l-1.3,1.6c-0.2,0.2-0.4,0.3-0.7,0.3
		c-0.2,0-0.5-0.1-0.5-0.5c0-0.5,0.3-1.8,0.3-4.4s-0.1-4-0.1-4.3c0-0.2,0.2-0.4,0.4-0.4s0.4,0.1,0.5,0.3c1.1,2.6,2.1,4.4,3.5,5.8
		c1.4,1.3,2.9,2,5.2,2c3.3,0,4.8-1.1,4.8-3.4c0-1.3-0.5-2.2-2.6-2.9c-2.7-0.9-5.3-1.4-8.2-2.3c-3.1-1-4-3.2-4-6.2
		c0-1.1,0.2-2.3,0.6-3.3c1.1-2.7,3.8-4.1,6.6-4.1c1.5,0,3.1,0.5,4.4,1.4l0.8,0.6c0.2,0.1,0.3,0.1,0.4,0.1c0.2,0,0.3-0.1,0.5-0.2
		c0.6-0.4,1.6-1.5,2-1.9c0.2-0.2,0.4-0.2,0.5-0.2c0.3,0,0.6,0.1,0.6,0.5c0,0.3-0.3,1.8-0.3,4c0,1.3,0.2,3.2,0.2,3.9
		c0,0.3-0.2,0.5-0.5,0.5c-0.2,0-0.4-0.1-0.5-0.3c-0.6-1.5-1-2.2-2-3.7c-1.5-2.4-4.1-3.4-6.1-3.4c-3.9,0-4.8,2.2-4.8,3.4
		c0,1.7,0.6,2.5,3.2,3.2c2.3,0.6,5.5,1.4,7.7,2c3.2,0.9,4.3,2.8,4.3,6.6C230.2,61,229.5,62.8,228.1,64z M261.9,44.8h-0.1h-4.3h-0.1
		c0,0-0.1,0-0.1,0.2v18.1c0,0.4,0.1,0.6,0.6,0.6l3.3,0.1c0.4,0,0.7,0.3,0.7,0.6c0,0.5-0.3,0.7-0.7,0.7s-5.5-0.1-7.4-0.1
		c-1.7,0-4.7,0.1-6.2,0.1l0,0c-0.3,0-0.5-0.3-0.5-0.7c0-0.3,0.2-0.6,0.6-0.6l3-0.1c0.4,0,0.6-0.2,0.6-0.6V45c0-0.1,0-0.2-0.1-0.2
		h-0.1h-3.5h-0.3c-0.3,0-0.5-0.4-0.5-0.8c0-0.4,0.2-0.8,0.5-0.8h0.3h3.4h0.2c0.1,0,0.1-0.1,0.1-0.2v-2.5c0-4.9,3.2-9.8,9.8-9.8
		c3.8,0,6.5,2.1,6.5,4.8c0,2.5-1.7,3.6-3.3,3.6c-1.9,0-3-1.6-3-3.1c0-0.7,0.2-1.4,0.6-1.9s0.9-0.8,1.3-1.1c0.2-0.1,0.3-0.3,0.3-0.5
		c0-0.6-0.8-1-2.5-1c-2.6,0-3.5,1.1-3.5,5.2v6.2c0,0.2,0,0.2,0.1,0.2h0.1h4.3h0.2c0.3,0,0.6,0.3,0.6,0.8
		C262.4,44.5,262.2,44.8,261.9,44.8z M280.5,50.9c-2,0-3.1-1.5-3.1-2.9c0-0.6,0.1-1.1,0.4-1.5c0.4-0.6,0.8-0.8,1.3-1.2
		c0.3-0.2,0.6-0.5,0.6-0.8s-0.2-0.8-1.3-0.8c-3.1,0-4.5,4-4.5,6.8v12.6c0,0.4,0.1,0.6,0.7,0.6l2.7,0.1c0.4,0,0.7,0.3,0.7,0.6
		c0,0.4-0.3,0.7-0.6,0.7h-0.1c-1.5,0-4.7-0.1-6.5-0.1c-2,0-4.1,0.1-6.1,0.1h-0.1c-0.3,0-0.6-0.3-0.6-0.7c0-0.3,0.2-0.6,0.7-0.6
		l2.5-0.1c0.5,0,0.6-0.1,0.6-0.6v-17c0-0.8-0.4-1.3-1.3-1.3l-2.7-0.1c-0.4,0-0.6-0.3-0.6-0.7c0-0.3,0.2-0.7,0.6-0.7
		c2.2,0,7.1-0.2,9.5-0.4c0.4,0,0.6,0.2,0.6,0.6v0.3l-0.1,3.3h0.1c0.8-3.2,3-4.5,5.3-4.5c3.4,0,5,2.3,5,4.5
		C284.2,49,282.9,50.9,280.5,50.9z M309.8,62.7c-0.7,2.3-2,3-4.9,3c-1.4,0-2.8-0.2-3.7-0.6c-1.3-0.7-2.2-1.9-2.2-3.7h-0.1
		c-0.8,3-3.4,4.3-6.3,4.3c-4,0-6.1-2.3-6.1-5.2c0-3.1,1.8-5.1,4.4-6.1c2.3-0.9,5.5-1.7,6.9-2.2c1.2-0.4,1.2-0.8,1.2-1.5v-3.1
		c0-2.9-0.6-4-3.8-4c-1.9,0-4,0.6-4,1.4c0,0.4,0.3,0.5,0.6,0.7l0.4,0.2c1,0.7,1.6,1.7,1.6,2.7c0,2.3-1.7,3.3-3.5,3.3
		s-3.5-1.2-3.5-3.5c0-1.5,0.8-3.2,2.8-4.4c1.7-1.1,4.2-1.7,7-1.7c5.6,0,8.7,2.2,8.7,6.1v13.7c0,1.3,0.5,1.9,1.7,1.9
		c2.1,0,2.1-3.7,2.1-5c0-1.6,0-2.8,0-3c0-0.3,0.2-0.5,0.5-0.5c0.2,0,0.5,0.2,0.5,0.5c0.1,0.9,0.2,2.2,0.2,3.1
		C310.3,60.4,310.2,61.6,309.8,62.7z M338.1,65.1L338.1,65.1c-2,0-4.1-0.1-6-0.1c-1.7,0-4.1,0.1-5.6,0.1h-0.1
		c-0.3,0-0.6-0.3-0.6-0.7c0-0.3,0.2-0.6,0.6-0.6l1.8-0.1c0.4,0,0.5-0.1,0.5-0.7V48.8c0-3.6-0.9-4.7-2.8-4.7c-2.9,0-4.7,4.1-4.7,7v12
		c0,0.5,0.1,0.6,0.6,0.7l1.8,0.1c0.4,0,0.6,0.3,0.6,0.6c0,0.4-0.3,0.7-0.6,0.7h-0.1c-1.5,0-3.7-0.1-5.5-0.1c-2,0-4.1,0.1-6,0.1h-0.1
		c-0.3,0-0.6-0.3-0.6-0.7c0-0.3,0.2-0.6,0.6-0.6l2.5-0.1c0.4,0,0.5-0.1,0.5-0.6v-17c0-0.8-0.4-1.3-1.3-1.3l-2.4-0.1
		c-0.4,0-0.6-0.3-0.6-0.7s0.2-0.7,0.6-0.7c2.2,0,6.8-0.2,9.2-0.4c0.4,0,0.6,0.2,0.6,0.6V47h0.1c0.6-1.9,2.8-4.3,6.4-4.3
		c4.5,0,7.2,2.9,7.2,6.9v13.7c0,0.5,0.1,0.6,0.5,0.6l2.5,0.1c0.4,0,0.7,0.3,0.7,0.6C338.6,64.8,338.4,65.1,338.1,65.1z M360.2,56.1
		c0,2.7-1,5.8-3.1,7.8c-1.5,1.4-3.3,2-5.3,2h-0.5l-0.3,0.4c-0.1,0.2-0.2,0.3-0.2,0.4s0.1,0.2,0.3,0.3l0.5,0.1
		c2.1,0.6,3.3,2.2,3.3,3.9c0,1.9-1.7,4.1-6.1,4.1c-0.5,0-2-0.1-2.6-0.2c-0.4,0-0.5-0.3-0.5-0.6c0-0.3,0.2-0.5,0.6-0.5
		c0.2,0,0.6,0,0.9,0c2.4,0,3.2-0.8,3.2-2c0-0.8-0.5-1.9-2.1-2.1h-0.4c-0.2,0-0.4-0.2-0.4-0.4c0-0.1,0-0.2,0.2-0.4l2.3-3.1
		c-5.1-0.9-9.4-5.8-9.4-11.5c0-5.8,4.9-11.7,11.3-11.7c4.8,0,8,3.1,8,6.4c0,2-1.4,3.4-3.5,3.4c-2.4,0-3.5-1.6-3.5-3.3
		c0-1.1,0.6-2.3,1.6-2.8c0.6-0.3,0.8-0.6,0.8-1c0-0.6-0.7-1.7-3.3-1.7c-3.5,0-4.8,1.7-4.8,10.6c0,9.1,1.2,10.2,4.4,10.2
		c4.8,0,6.9-4.1,7.2-8.4c0-0.4,0.4-0.7,0.7-0.7C359.9,55.3,360.2,55.5,360.2,56.1L360.2,56.1z M386.4,62.7c-0.7,2.3-2,3-4.9,3
		c-1.4,0-2.8-0.2-3.7-0.6c-1.3-0.7-2.2-1.9-2.2-3.7h-0.1c-0.8,3-3.4,4.3-6.3,4.3c-4,0-6.1-2.3-6.1-5.2c0-3.1,1.8-5.1,4.4-6.1
		c2.3-0.9,5.5-1.7,6.9-2.2c1.2-0.4,1.2-0.8,1.2-1.5v-3.1c0-2.9-0.6-4-3.8-4c-1.9,0-4,0.6-4,1.4c0,0.4,0.3,0.5,0.6,0.7l0.4,0.2
		c1,0.7,1.6,1.7,1.6,2.7c0,2.3-1.7,3.3-3.5,3.3s-3.5-1.2-3.5-3.5c0-1.5,0.8-3.2,2.8-4.4c1.7-1.1,4.2-1.7,7-1.7
		c5.6,0,8.7,2.2,8.7,6.1v13.7c0,1.3,0.5,1.9,1.7,1.9c2.1,0,2.1-3.7,2.1-5c0-1.6,0-2.8,0-3c0-0.3,0.2-0.5,0.5-0.5s0.5,0.2,0.5,0.5
		c0.1,0.9,0.2,2.2,0.2,3.1C386.8,60.4,386.7,61.6,386.4,62.7z M401.2,65.1L401.2,65.1c-1.6,0-4.2-0.1-5.9-0.1c-2,0-4.4,0.1-6.4,0.1
		l0,0c-0.3,0-0.6-0.3-0.6-0.7c0-0.3,0.2-0.6,0.7-0.6l2.5-0.1c0.4,0,0.5-0.2,0.5-0.6v-17c0-0.8-0.3-1.3-1.2-1.3l-2.7-0.1
		c-0.4,0-0.6-0.4-0.6-0.7s0.2-0.7,0.6-0.7c2.9,0,7.5-0.1,9.6-0.4c0.4,0,0.5,0.2,0.5,0.6v19.6c0,0.4,0.2,0.6,0.6,0.6l2.4,0.1
		c0.4,0,0.7,0.3,0.7,0.6C401.7,64.8,401.4,65.1,401.2,65.1z M419.8,64c-1.4,1.2-3.4,1.8-5.6,1.8c-1.9,0-3.8-0.6-5.4-1.7
		c-0.6-0.5-0.8-0.6-1.1-0.6c-0.3,0-0.7,0.3-1,0.7l-1.3,1.6c-0.2,0.2-0.4,0.3-0.7,0.3c-0.2,0-0.5-0.1-0.5-0.5c0-0.5,0.3-1.8,0.3-4.4
		s-0.1-4-0.1-4.3c0-0.2,0.2-0.4,0.4-0.4c0.2,0,0.4,0.1,0.5,0.3c1.1,2.6,2.1,4.4,3.5,5.8c1.4,1.3,2.9,2,5.2,2c3.3,0,4.8-1.1,4.8-3.4
		c0-1.3-0.5-2.2-2.6-2.9c-2.7-0.9-5.3-1.4-8.2-2.3c-3.1-1-4-3.2-4-6.2c0-1.1,0.2-2.3,0.6-3.3c1.1-2.7,3.8-4.1,6.6-4.1
		c1.5,0,3.1,0.5,4.4,1.4l0.8,0.6c0.2,0.1,0.3,0.1,0.4,0.1c0.2,0,0.3-0.1,0.5-0.2c0.6-0.4,1.6-1.5,2-1.9c0.2-0.2,0.4-0.2,0.5-0.2
		c0.3,0,0.6,0.1,0.6,0.5c0,0.3-0.3,1.8-0.3,4c0,1.3,0.2,3.2,0.2,3.9c0,0.3-0.2,0.5-0.5,0.5c-0.2,0-0.4-0.1-0.5-0.3
		c-0.6-1.5-1-2.2-2-3.7c-1.5-2.4-4.1-3.4-6.1-3.4c-3.9,0-4.8,2.2-4.8,3.4c0,1.7,0.6,2.5,3.2,3.2c2.3,0.6,5.5,1.4,7.7,2
		c3.2,0.9,4.3,2.8,4.3,6.6C421.9,61,421.3,62.8,419.8,64z M429.6,65.9c-1.9,0-3.9-1.3-3.9-3.8c0-2.6,1.9-3.9,3.9-3.9
		s3.8,1.3,3.8,3.9C433.4,64.6,431.6,65.9,429.6,65.9z"/>
	<path class="st0" d="M294.1,54.9c-1.1,1-1.4,2.5-1.4,5.2s0.4,4.1,2,4.1c1.1,0,2.4-0.8,3.3-2.5c0.7-1.4,1.1-3.2,1.1-5.5v-3.6
		c-0.8,0.4-1.7,0.7-2.6,1S294.7,54.3,294.1,54.9z"/>
</g>
</svg>
