<?xml version="1.0" encoding="utf-8"?>
<!-- Generator: Adobe Illustrator 19.2.1, SVG Export Plug-In . SVG Version: 6.00 Build 0)  -->
<svg version="1.1" xmlns="http://www.w3.org/2000/svg" xmlns:xlink="http://www.w3.org/1999/xlink" x="0px" y="0px"
	 viewBox="0 0 45.7 45.7" style="enable-background:new 0 0 45.7 45.7;" xml:space="preserve">
<style type="text/css">
	.st0{display:none;}
	.st1{display:inline;stroke:#FFFBDE;stroke-width:0.75;stroke-miterlimit:10;}
	.st2{display:inline;}
	.st3{fill:#FFFBDE;}
	.st4{fill:none;}
	.st5{fill:#E3C3B3;}
	.st6{fill:#1D1D1B;}
</style>
<g id="Calque_3" class="st0">
	<rect x="-208.4" y="-179.9" class="st1" width="534" height="750.7"/>
</g>
<g id="Calque_1" class="st0">
	<g class="st2">
		<path d="M145.3-48.1c2.7,4.2,6.6,5.1,10.6,5.1c11.2,0,21.8-2.9,31.9-7.4c1.3-0.6,2.3-3.3,2.3-5.1c0.1-28,28.4-52.3,56.1-48
			c12.4,1.9,20.5,9.8,23,22.4c5.4,28.4-17.1,61.3-52.2,57.3c-10.3-1.2-18.1-6.2-22.6-14.1c-11.6,4.2-22.4,8.8-33.7,12
			c-6.3,1.8-13.2,1.8-19.8,1.8c-8.8,0-13.1-2.6-22.7-12.1c-7.1,5.5-14.6,10.4-23.8,11.6c-12.4,1.6-18.2-3.3-17.3-15.8
			c0.5-6.6,2.3-13.1,3.4-19.6c0.6-3.8,1.5-7.6,1.4-11.4c-0.1-2.1-1.4-5.4-3.1-6c-1.7-0.7-5,0.4-6.6,1.9c-7.7,7.5-12.8,16.8-15,27.2
			c-1.6,7.3-1.3,15.1-1.8,23.1c-12.8,3.4-23.7-4.5-23.2-18.9c0.2-6.3,2-12.4,2.9-18.7c0.5-3.1,1.1-6.3,0.8-9.4c-0.2-1.8-1.6-4.5-3-5
			c-1.8-0.7-4.6-0.1-6.3,1c-2.1,1.4-3.8,3.8-5.1,6c-8.4,13.8-10.9,28.8-8,44.7c-10.5,2.3-19.1-2-24-12.3c-3.1,2.2-5.9,5-9.3,6.6
			c-6,2.7-12.1,5.6-18.5,6.7c-9.7,1.7-16.3-4.1-15.4-13.9c0.8-9,3.4-17.9,5.3-26.9c0.7-3.4,2.1-6.7,2.5-10.2
			c0.2-1.7-0.4-4.4-1.6-5.3c-1-0.7-3.8,0-5.2,1c-1.8,1.3-3.3,3.2-4.3,5.2c-8,16.7-18.7,31.6-32.9,43.6c-14.1,12-24.4,8.6-29.8-9.3
			c-2.5-8.5-4.7-17-7-25.5c-0.4-1.6-0.9-3.2-1.4-4.8c-3.6-11.1-5-11.8-15.5-7.2c-1.2-1.5-2.4-3-4.3-5.5c8-6.3,15.6-13.1,23.9-18.7
			c5.9-4,12.9-1,15.1,6.2c2.3,7.4,3.1,15.3,4.8,22.9c1.2,5.5,2.5,11.1,4.5,16.3c1.7,4.5,4.4,5,7.3,1.1c3.9-5.3,7.6-11,10.3-17
			c3.8-8.4-0.2-12.8-9.3-11.3c-0.6,0.1-1.2,0.2-1.9,0.4c1.9-11.7,10.7-20,22-21.2c9.4-1,12.9,1.7,17.7,14.1c4.2-3.4,8.2-6.8,12.4-10
			c4.1-3.1,8.8-4.4,13.5-1.7c4.6,2.5,6.2,7.2,5.6,12c-1.1,9.1-3,18-4.5,27.1c-0.5,3.3-1.3,6.6-1.2,9.9c0.1,6.7,4.7,9.1,10.5,5.9
			c4.3-2.4,7.2-5.3,7.5-10.8c0.3-5.8,1.7-11.5,2.3-17.3c0.2-1.8-0.6-3.7-1-5.6c-1.7,0.6-3.3,1.1-5,1.8c-0.9,0.4-1.7,1-2.9,1.8
			c-1.6-1.8-3.1-3.4-5-5.6c7-6.2,13.5-12.3,20.4-17.9c5.3-4.3,10.9-3.1,14,3c1.8,3.6,2.5,7.8,3.8,12c0.7-0.7,1.6-1.7,2.5-2.6
			c7.3-7.7,16-12.4,26.8-12.8c9.7-0.3,14.5,3.7,16.1,13.3c0.2,1.1,0.4,2.2,0.5,3.4c0.7,0.5,1.4,1.1,2,1.6c1-1.8,1.8-4,3.2-5.5
			c6.4-6.9,13.8-12,23.5-12.8c11.2-0.9,18,4.8,17.3,16c-0.5,8.7-2.8,17.4-4.2,26.1c-0.4,2.8-0.8,5.6-0.9,8.4c-0.2,3.6,1.9,5.3,5.3,5
			c3.2-0.2,5.6-1.2,5.7-5.3c1-29.2,25.9-52.4,55.2-51.4c7.6,0.3,14.8,1.9,18.3,9.7c3.6,8.2,1.6,15.6-3.9,22.3
			c-9.2,11.3-21.1,18.1-35.2,21.3C148.1-48.9,146.9-48.5,145.3-48.1z M246.3-72.6c-0.6-4.8,0.2-11.1-5.5-13.6
			c-4.9-2.1-9.9,0.7-13.5,4.4c-8,8-12,17.8-11.6,29.2c0.2,4.4,1.3,8.8,5.8,10.8c4.5,2,8.4-0.2,12-2.7c1.1-0.7,2.1-1.7,2.9-2.7
			C242.6-54.4,245.9-62.7,246.3-72.6z M141.7-56.3c10-4.2,18.2-9.6,22.6-19.1c0.9-2,0.8-5.9-0.5-7.2c-1.3-1.3-5.1-1.3-7.2-0.4
			C148.4-79.7,141-66.5,141.7-56.3z"/>
	</g>
	<g class="st2">
		<path class="st3" d="M-33.4-115.6c-4.4-0.2-8.7-0.5-10.7-5.1c-2-4.6-0.9-8.8,2.3-12.5c4.3-5,9.7-8,16.5-8c8.1,0,13,7.9,9.1,15.1
			C-19.8-119.3-25.7-115.7-33.4-115.6z"/>
	</g>
	<g class="st2">
		<path d="M-8.6,196.6c-41,0-82,0-123,0c-6.6-2.4-11.1-6.9-13.5-13.5c0-41,0-82,0-123c2.4-6.6,6.9-11.1,13.5-13.5c41,0,82,0,123,0
			C-2,49.1,2.5,53.6,4.9,60.1c0,41,0,82,0,123C2.4,189.7-2,194.2-8.6,196.6z M-127.7,110.2c-0.1,1.4-0.2,2.4-0.2,3.4
			c0,19.4,0,38.7,0,58.1c0,5.8,2,7.8,8,7.8c33.2,0,66.5,0,99.7,0c5.9,0,7.9-2,7.9-7.8c0-17.1,0-34.2,0-51.3c0-3.2,0-6.5,0-9.9
			c-4.4,0-8.6,0-12.8,0c6.6,35-19.7,55.1-39.1,57c-12.3,1.2-23.7-1.2-33.6-8.9c-15.8-12.3-20.8-28.8-17.2-48.3
			C-119.5,110.2-123.4,110.2-127.7,110.2z M-69.7,92.8c-16.2-0.2-29,12.3-29.1,28.3c-0.2,16.2,12.2,29,28.3,29.3
			c16.3,0.2,29.3-12.4,29.4-28.6C-41.2,105.7-53.7,93-69.7,92.8z M-26.7,63.8c-2.6,0-5.2-0.1-7.8,0c-4.5,0.1-6.8,2.3-6.9,6.6
			c-0.1,5.4-0.1,10.7,0,16.1c0.1,3.9,2.4,6.3,6.3,6.4c5.5,0.1,11,0.1,16.4,0c3.8-0.1,6.1-2.4,6.2-6.1c0.2-5.6,0.1-11.2,0-16.8
			c-0.1-3.8-2.3-6-6.1-6.2C-21.2,63.7-23.9,63.8-26.7,63.8z"/>
	</g>
	<g class="st2">
		<path d="M71.5,206.7c-0.2-1.8-0.5-3.6-0.5-5.4c0-21.8-0.2-43.6,0.1-65.5c0.1-5-1.6-6.4-6.3-6c-5.1,0.4-10.3-0.1-15.5,0.1
			c-3.8,0.2-5-1.5-4.9-5c0.1-7.2,0.1-14.3,0-21.5c-0.1-3.6,1.1-5.4,4.9-4.9c0.8,0.1,1.7,0,2.5,0c6.2-0.3,12.4-0.7,18.6-1.1
			c0.2-6.1,0.3-12.3,0.6-18.4c0.1-3.8-0.1-7.7,0.6-11.4c3.8-19.6,16.9-30.7,37-31c7.3-0.1,14.6,0.4,21.9,1c1.2,0.1,3.1,2,3.1,3.1
			c0.3,7.2,0.1,14.3,0.2,21.5c0.1,3-1.5,3.6-4,3.6c-5.2,0-10.3,0-15.5,0.2c-6.5,0.3-10,3.1-10.7,9.5c-0.7,6.6-0.5,13.3-0.7,19.9
			c-0.1,3,1.7,3.1,3.9,3.1c7.2,0,14.3,0.1,21.5-0.1c3.5-0.1,4.8,1,4.2,4.7c-1.1,7.1-2,14.2-2.7,21.3c-0.4,4-2,5.9-6.3,5.6
			c-5-0.3-10,0.2-15-0.2c-4.3-0.3-5.7,1-5.7,5.5c0.2,21.7,0.1,43.3,0.1,65c0,2.1-0.3,4.3-0.4,6.4C92.1,206.7,81.8,206.7,71.5,206.7z
			"/>
	</g>
	<g class="st2">
		<path d="M253.3,301.2c0,14.5,0,29.1,0,43.6c0,3.9-1.8,6.6-5.2,7.6c-0.7,0.2-1.5,0.3-2.2,0.3c-29.2,0-58.4,0-87.7,0
			c-4.3,0-7.5-3.3-7.5-7.7c0-29.2,0-58.4,0-87.7c0-0.6,0.1-1.2,0.2-1.8c0.5-3.1,3.2-5.6,6.4-5.9c0.7-0.1,1.4-0.1,2.1-0.1
			c28.5,0,56.9,0,85.4,0c2,0,4,0.3,5.7,1.6c1.7,1.4,2.7,3.1,2.8,5.3c0,0.6,0,1.1,0,1.7C253.3,272.5,253.3,286.8,253.3,301.2z
			 M206,336.1c0-0.5,0-0.9,0-1.3c0-8.3,0-16.5,0-24.8c0-2.7,0.7-5.1,2.6-7.1c2.3-2.2,5-2.8,8-2.1c2.9,0.7,4.4,2.8,5,5.5
			c0.4,1.8,0.5,3.6,0.5,5.5c0.1,7.4,0,14.8,0,22.2c0,0.6,0,1.3,0,2c0.5,0,0.9,0,1.2,0c4.4,0,8.8,0,13.2,0c1.3,0,1.3,0,1.3-1.3
			c0-8.3,0-16.5,0-24.8c0-2.3-0.2-4.6-0.6-6.9c-1.5-9.2-7.9-14.8-17.1-15c-5.8-0.1-10.5,2-13.9,7c-0.1,0.1-0.2,0.2-0.4,0.5
			c0-2.2,0-4.3,0-6.3c-0.4,0-0.7-0.1-1-0.1c-4.5,0-9.1,0-13.6,0c-0.9,0-1.1,0.3-1.1,1.1c0,14.5,0,29,0,43.5c0,0.4,0,0.8,0,1.2
			c-0.1,0.8,0.2,1.1,1,1.1c1.5-0.1,3,0,4.4,0C199.1,336.1,202.4,336.1,206,336.1z M181.8,336c0-0.3,0.1-0.6,0.1-0.9
			c0-15,0-29.9,0-44.9c0-0.8-0.3-1-1.1-1c-4.5,0-9,0-13.5,0c-0.9,0-1.1,0.3-1.1,1.2c0,14.9,0,29.7,0,44.6c0,0.3,0,0.7,0,1.1
			C171.5,336,176.6,336,181.8,336z M174,283.1c0.8-0.1,1.6-0.1,2.3-0.3c3.7-0.7,6.4-3.8,6.5-7.3c0.2-4.2-2.1-7.5-6-8.4
			c-1.6-0.4-3.3-0.4-4.9-0.2c-4.9,0.7-7.7,5.3-6.5,10.1C166.6,280.8,169.8,283,174,283.1z"/>
	</g>
	<g class="st2">
		<path d="M121,328.8c-0.9,1.2-1.6,2.2-2.5,3.1c-4.1,4.1-9.2,5.6-14.8,5.1c-7.6-0.6-13.3-4.4-16.6-11.1c-4.8-9.6-4.7-19.5,0.5-28.9
			c5.9-10.5,17.7-12.7,26.3-9.4c2.2,0.8,4,2.1,5.5,4.2c0-8,0-15.7,0-23.5c5.2,0,10.3,0,15.7,0c0,22.5,0,45,0,67.6
			c-4.3,0-8.9,0-13.5,0C121.5,333.6,121.3,331.3,121,328.8z M119.7,311.3c-0.1,0-0.2,0-0.3,0c0-1.9,0.2-3.8,0-5.6
			c-0.5-3.8-3.4-6.8-6.9-7.5c-4.1-0.9-8,0.6-10.3,3.9c-1.5,2.2-2.3,4.7-2.5,7.4c-0.3,3.9,0,7.6,2.1,11c2.1,3.4,5.9,5.1,10.1,4.5
			c3.6-0.5,6.6-3.2,7.4-7C119.6,315.8,119.5,313.5,119.7,311.3z"/>
	</g>
	<g class="st2">
		<path d="M4.1,268.4c0,12.8,0,25.6,0,38.6c0.3-0.3,0.4-0.5,0.6-0.7C9,300.1,13.3,294,17.6,288c0.2-0.3,0.7-0.6,1-0.6
			c5.9,0,11.7,0,17.6,0c0.1,0,0.2,0,0.4,0.1c-5.9,6.6-11.8,13-17.8,19.6c6.8,9.6,13.5,19.2,20.3,28.9c-0.4,0-0.7,0.1-0.9,0.1
			c-5.8,0-11.5,0-17.3,0c-0.7,0-1-0.2-1.3-0.8c-3.7-6.1-7.4-12.2-11.1-18.3c-0.2-0.3-0.4-0.6-0.6-0.9c-1.2,1.6-2.4,3-3.5,4.5
			c-0.2,0.3-0.3,0.8-0.3,1.2c0,4.4,0,8.7,0,13.1c0,0.4,0,0.7,0,1.1c-5.2,0-10.3,0-15.4,0c0-22.6,0-45,0-67.6
			C-6.2,268.4-1.1,268.4,4.1,268.4z"/>
	</g>
	<g class="st2">
		<path d="M48.6,316.5c0.2,2.5,1.2,4.4,3.1,6c2.8,2.3,6.2,3.1,9.8,3.2c5,0.2,10-0.4,14.9-2c0.7,3.4,1.4,6.8,2.1,10.4
			c-2.2,0.6-4.4,1.4-6.7,1.8c-6.1,1.2-12.3,1.6-18.5,0.5c-10.5-1.9-17.9-8.8-19.3-20c-0.9-7.3,0.4-14.2,4.7-20.3
			c4.3-6.1,10.4-9.2,17.8-9.8c4-0.3,7.9,0,11.7,1.5c6.3,2.6,9.9,7.4,11.8,13.8c1.4,4.7,1.5,9.4,0.8,14.3c-0.1,0.8-0.6,0.7-1.1,0.7
			c-5.8,0-11.6,0-17.4-0.1c-4.3,0-8.6,0-12.9,0C49.2,316.5,49,316.5,48.6,316.5z M66.9,306c-0.1-0.8-0.1-1.6-0.3-2.3
			c-0.6-2.9-1.7-5.4-4.5-6.6c-6.6-2.9-12.9,1.6-13.5,8.9C54.6,306,60.7,306,66.9,306z"/>
	</g>
	<g class="st2">
		<path d="M-17.8,336c-5.2,0-10.2,0-15.4,0c0-0.4,0-0.8,0-1.2c0-7.7,0-15.4,0-23.2c0-1.8-0.2-3.7-0.6-5.5c-1.8-7.1-9.7-6.7-13-3.3
			c-1.7,1.8-2.7,3.9-2.7,6.5c0,8.5,0,17,0,25.4c0,0.4,0,0.8,0,1.2c-5.2,0-10.3,0-15.5,0c0-15.5,0-30.9,0-46.5c5.1,0,10.2,0,15.5,0
			c0,2,0,4.1,0,6.1c0.1,0,0.1,0,0.2,0.1c0.3-0.4,0.5-0.7,0.8-1.1c3.7-5,8.9-6.7,14.9-6.2c9.1,0.8,14.1,6.9,15.5,15.4
			c0.3,1.8,0.4,3.7,0.4,5.5c0,8.6,0,17.2,0,25.8C-17.8,335.3-17.8,335.6-17.8,336z"/>
	</g>
	<g class="st2">
		<path d="M-136.8,336c0-22.6,0-45,0-67.6c5.2,0,10.3,0,15.5,0c0,17.9,0,35.7,0,53.6c9.1,0,18.2,0,27.3,0c0,4.7,0,9.3,0,14
			C-108.3,336-122.5,336-136.8,336z"/>
	</g>
	<g class="st2">
		<path d="M-87.8,336c0-15.5,0-31,0-46.5c5.2,0,10.3,0,15.4,0c0,15.5,0,31,0,46.5C-77.5,336-82.6,336-87.8,336z"/>
	</g>
	<g class="st2">
		<path d="M-80.2,266.9c4.7,0,8.1,2.6,8.7,6.6c0.8,4.9-2.5,9.1-7.5,9.4c-2.9,0.2-5.5-0.3-7.6-2.5c-2.3-2.4-2.8-5.3-1.7-8.4
			c1.1-3.1,3.6-4.6,6.8-5.1C-80.9,266.9-80.4,266.9-80.2,266.9z"/>
	</g>
	<g class="st2">
		<path d="M-118.9,393.8c0.9,0,1.7,0,2.5,0c9.5,0,19-0.1,28.5,0.1c3.3,0.1,6.6,0.6,9.8,1.5c5.3,1.5,8.6,5.2,9.4,10.7
			c0.9,6.2-0.1,11.8-5.9,15.5c-0.6,0.4-1.1,0.7-1.9,1.2c0.5,0.3,0.8,0.6,1.1,0.7c6,2.4,9.1,6.9,9.7,13.3c0.7,7.3-1.2,13.6-7.9,17.3
			c-3.3,1.8-7.2,3.3-10.8,3.5c-11.4,0.4-22.9,0.2-34.5,0.2C-118.9,436.5-118.9,415.3-118.9,393.8z M-104.9,446.7
			c6.3,0,12.3,0.2,18.2-0.1c3.9-0.2,6.2-2.5,6.9-5.8c1.5-6.7-2.1-11.2-9.4-11.4c-4.7-0.2-9.4,0-14.1,0c-0.6,0-1.1,0.2-1.6,0.3
			C-104.9,435.5-104.9,441.1-104.9,446.7z M-104.9,419.5c5.5,0,10.8,0.3,16-0.1c4.5-0.3,6.9-3.2,6.9-7.4c0-4-2.4-6.8-6.9-7.1
			c-5-0.3-10-0.2-15.1-0.3c-0.3,0-0.6,0.2-0.9,0.4C-104.9,409.9-104.9,414.6-104.9,419.5z"/>
	</g>
	<g class="st2">
		<path d="M-9.5,393.9c4.2,0,8.2,0,12.6,0c0,7.9,0,15.6,0,23.7c2-1.8,3.4-3.6,5.4-4.7c6.2-3.7,12.6-3.4,18.8-0.2
			c4.1,2.1,5.6,6.1,6.2,10.4c0.4,3.2,0.5,6.5,0.5,9.7c0.1,8.3,0,16.6,0,25c-4.3,0-8.3,0-12.7,0c0-0.8-0.1-1.7-0.1-2.6
			c0-7.6,0-15.2,0-22.8c0-1.5-0.1-3.1-0.4-4.6c-0.7-4.9-2.7-7-6.7-7.3c-5.4-0.4-8.7,1.6-10,6.3c-0.6,2.1-0.8,4.4-0.8,6.6
			c-0.1,7.3,0,14.5,0,21.8c0,0.8,0,1.7,0,2.7c-4.3,0-8.4,0-12.6,0C-9.5,436.6-9.5,415.3-9.5,393.9z"/>
	</g>
	<g class="st2">
		<path d="M40.9,425.8c0-6.8,4.4-12.2,11.8-14.3c6.6-1.8,13.4-1.8,20-0.2c7.2,1.8,10.1,5.9,10.2,13.3c0,8.9,0.1,17.8,0.3,26.7
			c0,2.2,0.7,4.3,1.1,6.7c-3.7,0-7.5,0-11.4,0c-2.5,0-1.5-2.5-2.1-3.3c-3.5,1.4-6.9,3.1-10.4,4c-4.2,1.1-8.5,0.9-12.6-0.6
			c-5.6-2-8.5-6.4-8.5-12.7c0-6.2,2.7-10.7,8.4-12.3c4.6-1.3,9.4-1.8,14-2.7c1.7-0.3,3.4-0.6,5-1.1c1.8-0.6,3.3-1.5,3.3-3.7
			c0.1-2.5-0.4-4.8-2.9-5.8c-3.4-1.4-7.1-1.6-10.4,0.3c-1.2,0.7-2.3,2.2-2.7,3.5c-0.5,2-1.5,2.3-3.3,2.2
			C47.5,425.7,44.2,425.8,40.9,425.8z M69.8,436.1c-2.6,0.5-5.1,0.9-7.5,1.4c-2.3,0.5-4.8,0.8-6.9,1.8c-3.9,1.8-4.7,7.2-1.5,9.8
			c5.2,4.2,14.8,0.7,15.8-5.9C70.1,440.8,69.8,438.4,69.8,436.1z"/>
	</g>
	<g class="st2">
		<path d="M-15.8,443.6c-2.5,8.4-7.7,13.7-16.2,15.1c-8.5,1.4-16.6,0.2-22.9-6.4c-7.2-7.5-8.4-21.5-2.7-31.1
			c5.1-8.7,16.2-12.9,26.5-10.3c8.3,2.1,14.6,9.7,15.9,19.1c0.3,2.5,0.4,5,0.6,7.8c-11.4,0-22.4,0-33.4,0c-0.6,4.9,1.8,9.2,5.8,10.8
			c5.2,2.1,11.4,0.7,14.3-3.5c0.9-1.3,1.8-1.7,3.3-1.7C-21.8,443.7-18.9,443.6-15.8,443.6z M-28,429.6c-0.3-6.5-4-9.9-10.7-9.7
			c-5.5,0.1-9.5,4.2-9.4,9.7C-41.4,429.6-34.7,429.6-28,429.6z"/>
	</g>
	<g class="st2">
		<path d="M233.9,437.9c-11.5,0-22.5,0-33.4,0c-1,6.9,4.4,12.3,11.7,11.8c3.7-0.3,6.7-1.7,8.9-4.8c0.4-0.6,1.3-1.1,2-1.2
			c3.2-0.1,6.3-0.1,9.7-0.1c-2.1,7-6,12-12.9,14.2c-5.5,1.8-11.1,1.8-16.7,0.2c-10.5-3.1-16.5-12.7-15.8-24.9
			c0.9-16.2,15.5-26.7,30.8-21.9c9.5,3,13.8,10.3,15.2,19.7C233.8,433.1,233.8,435.4,233.9,437.9z M220.6,429.6
			c0.2-5.3-3.4-9.4-8.7-9.7c-6.9-0.3-11.2,3.2-11.7,9.7C207.1,429.6,213.9,429.6,220.6,429.6z"/>
	</g>
	<g class="st2">
		<path d="M133.3,457.8c-4.2,0-8.3,0-12.6,0c0-8.4,0-16.7,0-24.9c0-2-0.1-3.9-0.5-5.9c-0.8-4.5-3.1-6.6-7.2-6.9
			c-4.2-0.3-8,2-9.2,5.9c-0.7,2.3-1,4.9-1.1,7.3c-0.1,7.9-0.1,15.9-0.1,23.8c0,0.2-0.1,0.3-0.2,0.7c-4,0-8.1,0-12.3,0
			c0-15.2,0-30.6,0-46c3.9,0,7.8,0,11.9,0c0,2,0,3.7,0,5.5c0.4,0,0.6,0.1,0.6,0c5.2-7,12.4-8,20.2-6.2c6.4,1.4,9.9,5.7,10.3,13.8
			C133.7,435.7,133.3,446.7,133.3,457.8z"/>
	</g>
	<g class="st2">
		<path d="M184,440.1c-0.6,5.6-2.5,10-6.3,13.5c-10.2,9.5-29.2,6.7-36.3-5.4c-6.9-11.8-2.9-29.3,8.5-35.1c9.2-4.7,18.5-4.2,27.2,1.7
			c4.3,3,6.4,7.4,6.7,13c-3.9,0-7.6,0.1-11.4-0.1c-0.5,0-1.2-0.9-1.4-1.5c-1-3.6-3.4-5.7-7-6.3c-3.9-0.6-7.3,0.4-9.8,3.7
			c-4.2,5.4-4.3,16.6-0.2,22.1c2.3,3.1,5.4,4.3,9.2,3.8c4.1-0.5,6.8-2.8,7.8-6.7c0.6-2.4,1.7-2.9,3.9-2.7
			C177.8,440.2,180.7,440.1,184,440.1z"/>
	</g>
	<g class="st2">
		<path d="M-25.2,398.2c0,2.1,0,4.1,0,6.1c-8.6,0-17.1,0-25.8,0c0-1.9,0-3.9,0-6.1C-42.5,398.2-33.9,398.2-25.2,398.2z"/>
	</g>
	<g class="st2">
		<path d="M214.9,150.1c-1.2,4.7-2.6,9.3-3.5,14.1c-3.1,15.3-9.5,28.9-19.2,41.1c-0.6,0.8-1.6,1.2-2.4,1.8c-0.4-0.8-1.1-1.6-1.2-2.5
			c-1.3-8.7-2.2-17.5-0.7-26.2c1.9-11.3,4.6-22.5,7.1-33.8c1.8-8.3,3.9-16.6,5.8-24.9c0.2-1.1,0.1-2.4-0.3-3.5
			c-3.2-10.1-3.6-20.1,2.1-29.5c3.3-5.4,8-8.8,14.6-8.7c6.7,0.1,12,5.3,12.4,12.1c0.5,7.6-2.1,14.5-4.1,21.6c-1.4,5-3,10-4.2,15.1
			c-2,8.2,3.7,16.2,11.9,17.4c9.2,1.3,15.9-2.8,21.3-9.5c6.3-7.9,9.4-17.2,10.7-27.1c0.7-5.7,1.1-11.5,0.9-17.2
			c-0.6-14.7-9.9-26.6-24.1-30.7c-16.8-4.7-32.6-2.5-46.4,8.9c-8.2,6.8-12.9,15.8-14.8,26.3c-1.3,7.3-1.3,14.6,2.1,21.4
			c1.1,2.1,2.5,4,3.9,5.9c1,1.4,1.6,2.8,1,4.6c-0.8,2.4-1.2,4.8-1.8,7.3c-0.8,3.2-2.7,4.1-5.8,2.7c-8.1-3.7-13.3-10-15.9-18.3
			c-6.1-18.9-2.7-36.3,9.1-52c10.8-14.2,25.5-21.8,43-24.5c14-2.1,27.6-1.3,40.6,4.7c17.3,8,28.3,21.2,32.2,40
			c1.3,6.3,0.9,12.7,0.2,19.1c-0.9,9-3,17.6-7,25.7c-6.8,13.9-16.9,24-32.2,28.1c-10.3,2.7-20.4,2.3-29.4-4.2
			C218.6,154.1,216.9,152.1,214.9,150.1z"/>
	</g>
	<g class="st2">
		<path class="st4" d="M40.3-135.2"/>
	</g>
</g>
<g id="Calque_2">
	<g>
		<g>
			<g>
				<g>
					<path class="st5" d="M-45.8-405.5C-45.9-405.5-45.8-405.5-45.8-405.5L-45.8-405.5z"/>
					<path class="st5" d="M-41.3-414.1C-41.3-414.1-41.3-414.2-41.3-414.1c-0.2-0.1-0.3-0.2-0.4-0.3L-41.3-414.1z"/>
					<path class="st5" d="M-39.4-414.7C-39.3-414.7-39.3-414.7-39.4-414.7C-39.4-414.7-39.5-414.8-39.4-414.7z"/>
					<path class="st5" d="M-41.9-410.2C-41.9-410.2-41.9-410.1-41.9-410.2C-41.8-410.1-41.9-410.1-41.9-410.2z"/>
					<path class="st5" d="M-46.7-402.6C-46.7-402.6-46.7-402.6-46.7-402.6c0,0-0.1-0.1-0.1-0.1L-46.7-402.6z"/>
					<path class="st5" d="M-46.9-402.8c0.1,0.1,0.2,0.2,0.2,0.2c0.2,0.1,0.3,0.1,0.2,0C-46.7-402.8-46.7-402.7-46.9-402.8z"/>
					<path class="st5" d="M-49.2-398L-49.2-398C-49.2-398.1-49.2-398-49.2-398z"/>
					<path class="st5" d="M-29.5-401.3C-29.5-401.3-29.5-401.3-29.5-401.3C-29.5-401.3-29.5-401.3-29.5-401.3z"/>
					<path class="st5" d="M-48.4-398.4l-0.4-0.3C-48.7-398.6-48.5-398.5-48.4-398.4z"/>
					<path class="st5" d="M-41.7-414.5l-0.1-0.1C-41.8-414.6-41.7-414.5-41.7-414.5z"/>
					<path class="st5" d="M-38.3-415.7c0.1,0.1,0.2,0.2,0.3,0.2l0,0L-38.3-415.7z"/>
					<path class="st5" d="M-27.7-417.2c-0.1,0-0.1-0.1-0.2-0.1l0.3,0.2C-27.6-417.1-27.6-417.1-27.7-417.2z"/>
					<path class="st5" d="M-35.4-416c0,0-0.1-0.1-0.1-0.1c-0.2-0.1-0.2,0-0.3,0.1l0.5,0.4L-35.4-416z"/>
					<path class="st5" d="M-22.6-409.8l-1.1-0.5c-0.1-0.9,1.1-0.5,0.7-1.5l0.2,0.2c0.3,0.1-1.9-1.5,1.3-0.4l0.1,0.1
						c0,0-0.2-0.2,0.1,0l-0.7-0.3c-0.2-0.3-0.6-0.7-0.6-0.8c0.1,0.1,0.3,0.2,0.5,0.3l0-0.4l0.7,0.4c-0.3-0.3-1.7-1.2-0.8-0.9
						c-1-0.6-0.5-0.5-1-0.8c0.1,0.1,0.3,0.2,0.5,0.3c0-0.2-0.1-0.6-0.6-1c0,0-2.3-0.9-3.4-1.4c0.4,0-0.1-0.1-0.4-0.3l0.2,0.2
						c-0.3,0-0.9-0.5-1.1-0.5c0,0,0.1,0.1,0.2,0.1l-0.1-0.1c0.1,0.1,0.2,0.1,0.2,0.2c0.1,0.1,0.2,0.2,0.2,0.2l-0.1,0
						c0.1,0.1-0.1,0.1-0.2,0.1l-0.5-0.3c0.9,0.7-1.8-0.5-1.9-0.4c-0.7-0.3,0,0.3-0.4,0.3c-0.3,0.1-0.8-0.4-1.3-0.6
						c-0.4-0.1,0.6,0.4,0.6,0.4l-0.8-0.3c0-0.1-0.3-0.3-0.5-0.4c-0.2,0.1-1.2-0.3-0.3,0.4c-0.6-0.1-1-0.4-1.1-0.4
						c0.2,0.1,0.4,0.2,0.6,0.3c-0.5-0.2,0.1,0.1,0.2,0.1c0.4,0.4-2.2-0.7-1.1,0.1l-0.2-0.1c0.8,0.6,1.6,1.1,2,1.5l-0.4-0.2l0.3,0.3
						c-0.3-0.1-0.5-0.3-0.6-0.4c0.3,0.4-0.3,0.3-0.5,0.3l2.3,1.4c-0.6-0.2-1.8-0.7-1.1-0.2l-0.8-0.4c-1.6-0.7,0.5,0.6,0,0.4
						l-0.9-0.4l0.1-0.1c-0.5-0.2-0.8-0.3-1.4-0.5l0,0c0,0,0.1,0,0.1,0.1l0,0c0.4,0.3,0.6,0.6,0.5,0.6c-0.2,0.1,0.3,0.6-0.7,0.2
						l0.8,0.6l-0.6-0.2l-0.7-0.5c0.1-0.1,0.1-0.6,0.2-0.8l-0.3-0.2c-0.1,0.1,0.1,0.5,0,0.5c-0.2-0.1-0.9-0.4-1.3-0.8l0.6,0.5
						c-0.2,0.4-0.2,0.5-1.2,0.4l0.4,0.2c0.1,0.2,0.3,0.4-0.3,0.1c-0.3,0.2-0.9,0.1-1.8-0.3l0.7,0.6c-0.1,0-1.3-0.7-0.2,0.1l0.3,0.4
						c-0.1,0,0.3,0.4-0.2,0.2l0,0l0,0c0,0-0.1,0-0.1,0c0,0,0,0,0.1,0c-0.5-0.1,0.7,0.5,0.1,0.4c-0.6-0.3,0.9,0.8,0.7,0.7l-1.2-0.7
						c-0.7-0.3,0.3,0.5,0.2,0.8c-0.5-0.2-1.4-0.8-2.2-1.5c0.9,0.8,0.6,0.5,1,1c-0.4-0.3-0.5-0.4-0.9-0.7c-0.6-0.2,0.3,0.3,0.2,0.4
						c0.8,0.6,2,1.5,2,1.6l0.3,0.1c0.3,0.4,0.5,0.6,0,0.5l-0.4-0.3l0.1,0.3l-0.5-0.4l0,0.3l0.2,0.1c0,0.1,0.1,0.3-0.2,0.2l-0.3-0.2
						c-1-0.4,0,0.6-0.1,0.9l-0.5-0.4c-0.6-0.3,0.9,0.7,0.5,0.6l-0.7-0.5c0.8,0.8-0.3,0-0.7-0.2l0.9,0.6l-0.3,0
						c-0.4-0.1-1.2-0.8-1.7-1.1l0.7,0.6l-0.8-0.6c0.9,0.7-0.2,0,0.2,0.4c-0.3-0.2-0.5-0.4-0.6-0.4l1,1l-0.4-0.5l1.2,0.9
						c0.8,0.8-0.2,0.1,0,0.4l-0.3-0.3c0.2,0.3-0.3,0-0.6-0.1c0.2,0.1,0.6,0.3,0.7,0.5c0,0.1-0.4-0.3-0.6-0.3c0.8,0.6,1.1,1,0.7,0.8
						c-0.1-0.1-0.2-0.2-0.3-0.2c0.1,0.1,0.3,0.3,0.1,0.2l-0.9-0.7l0.8,0.7c-0.3-0.1,0.3,0.4-0.3,0l-0.2-0.2l-0.5,0.2l-0.7-0.5
						c0.9,0.7-0.5-0.1,0.7,0.8c-0.7-0.4,0.3,0.6-1.1-0.4c-0.3,0.2,0.9,1.3,0,1.1c-1.2-0.7-1.1-0.2-1.3-0.1c0.2,0.7,0.5,1.3,0.5,1.9
						c-1.8-1,0.1,1-1,0.5l0.6,0.5c-1.1-0.6-0.1,0.6-1.2,0.1c0.2,0.3,0.3,0.4,0.3,0.4c0,0,0.2,0.1,0.6,0.4c-0.3-0.1-0.1,0.2-0.9-0.4
						l-0.1-0.1c-0.8-0.6,0.2,0.5-0.5,0l0.9,0.6l-0.2,0l-0.1-0.2c1.5,2-1.4,0.2-0.1,2c-0.9-0.8,0.4,0.5-0.6-0.3
						c-1.4-0.8,0.1,0.4,0.4,0.8c0,0,0.1,0.1,0.2,0.1l-0.3,0.1c-1.2-1.1,1,0.9-0.1,0c-1.3-0.3-0.8,1.1-1.7,1.3l0.3,0.2
						c-0.2,0.1,0.1,0.6-0.5,0.3c-0.6-0.3,0.7,0.9,0.7,1c0.5,0.6-0.7-0.2-0.6-0.2c0.1,0.2,1.1,1.3,0.5,1c-1.1-0.8,0.7,1.3-0.5,0.3
						l0.1,0.1c-1-0.4,0.3,0.9-0.7,0.5c0,0-0.1-0.1-0.2-0.1l3.3,3.4l4.1,3l3.6,2.1l0.2-1.7l2,0.1l1.3-2.6l-0.8-0.9
						c1.9,0.8,0.5-1.2,2-0.8l-0.8-0.6c0.1-0.2,0.5,0.2,0.7,0.3c0.8-1.4,0.7-3.5,2.5-3.9c0.6,0.3,0.5-0.3,1.2,0
						c-0.7-1.1-0.4-1.5,0-1.8l0.1,0.1l0-0.3c0.1,0,0.2,0.1,0.2,0.2c-0.6-0.7,0.4-0.5,0.8-0.5l0.1,0.1c1.2-1.3,0.6-3.7,2.8-4.3
						c1.8,0.3,0.5-1.8,2.1-1.8C-22.8-407.4-22.4-409.4-22.6-409.8z"/>
					<path class="st5" d="M-22.2-412.8L-22.2-412.8C-21.8-412.6-22-412.7-22.2-412.8z"/>
					<polygon class="st5" points="-33.8,-416.2 -33.8,-416.2 -34.3,-416.5 					"/>
					<path class="st5" d="M-32.7-418.4c-0.2,0-0.1,0.1,0.1,0.2C-32.6-418.3-32.6-418.3-32.7-418.4z"/>
					<path class="st5" d="M-22.3-414c0.1,0-0.2-0.2-0.4-0.3c0,0.1,0,0.1,0,0.1C-22.6-414.2-22.4-414.1-22.3-414z"/>
					<path class="st5" d="M-27.2-417.1l-0.3-0.2C-27.4-417.2-27.3-417.1-27.2-417.1z"/>
				</g>
			</g>
		</g>
	</g>
	<path class="st4" d="M207.9,26.7c-12.2,0-22.1,9.9-22.1,22.1c0,12.2,9.9,22.1,22.1,22.1c12.2,0,22.1-9.9,22.1-22.1
		C230,36.6,220.1,26.7,207.9,26.7z M210.7,43.5h-2.3v14.1h2.3v0.8h-5.6v-0.8h2.3V43.5h-2.3v-0.8h5.6V43.5z"/>
	<path class="st6" d="M230.7,48.8c0-12.6-10.3-22.9-22.9-22.9c-12.6,0-22.9,10.3-22.9,22.9c0,12.6,10.3,22.9,22.9,22.9
		C220.5,71.7,230.7,61.4,230.7,48.8z M207.9,70.9c-12.2,0-22.1-9.9-22.1-22.1c0-12.2,9.9-22.1,22.1-22.1c12.2,0,22.1,9.9,22.1,22.1
		C230,61,220.1,70.9,207.9,70.9z"/>
	<polygon class="st6" points="205.1,41.7 207.4,41.7 207.4,55.9 205.1,55.9 205.1,56.7 210.7,56.7 210.7,55.9 208.3,55.9 
		208.3,41.7 210.7,41.7 210.7,40.9 205.1,40.9 	"/>
</g>
<g id="Calque_4">
	<path class="st4" d="M44.2,181.6c12.2,0,22.1-9.9,22.1-22.1c0-12.2-9.9-22.1-22.1-22.1c-12.2,0-22.1,9.9-22.1,22.1
		C22.1,171.7,32,181.6,44.2,181.6z M36.3,153.3h4.9v0.8h-2.1l5.1,13.7l5.1-13.7h-2.1v-0.8h4.9v0.8h-1.8l-5.8,15.2h-0.6l-5.8-15.2
		h-1.8V153.3z"/>
	<path class="st4" d="M44.2,227.3c12.2,0,22.1-9.9,22.1-22.1c0-12.2-9.9-22.1-22.1-22.1c-12.2,0-22.1,9.9-22.1,22.1
		C22.1,217.4,32,227.3,44.2,227.3z M51.5,203.2c2.9,0,4.4,2.2,4.4,4.7c0,0.2,0,0.4-0.1,0.6h-8.2c0.1,2.8,1.8,4.3,4.3,4.3
		c1.3,0,2.4-0.5,3.5-1.2l-0.1,0.9c-1,0.6-2.2,1-3.5,1c-3,0-5.1-2-5.1-5.2C46.8,205.5,48.7,203.2,51.5,203.2z M32.6,212.5h2.2v-14.1
		h-2.2v-0.8h6.3c3.5,0,5,1.9,5,3.9c0,1.9-1.3,3.3-3.2,3.8c2.3,0.4,3.6,1.8,3.6,3.8c0,2.5-2.1,4.3-5.3,4.3h-6.5V212.5z"/>
	<path class="st4" d="M26.5,22.9c0-2.4-1.9-4-4.6-4h-2.7v8c0.6,0,1.8,0,2.7,0C24.9,26.9,26.5,25.3,26.5,22.9z"/>
	<path class="st4" d="M44.2,273.1c12.2,0,22.1-9.9,22.1-22.1s-9.9-22.1-22.1-22.1c-12.2,0-22.1,9.9-22.1,22.1S32,273.1,44.2,273.1z
		 M42.6,256.9h1.8v-8.4h-1.8v-0.8h2.6v2c0.9-1.1,2.4-2.2,4-2.2c1.3,0,2.2,0.5,2.6,1.3c0.3,0.6,0.5,1.3,0.5,2.1v5.9H54v0.8h-4.4v-0.8
		h1.7v-5.8c0-0.7-0.1-1.2-0.3-1.7c-0.3-0.7-1-1.1-2-1.1c-1.5,0-2.8,1-3.8,2.2v6.4H47v0.8h-4.4V256.9z M34.9,256.9h2.3v-14.1h-2.3
		v-0.8h5.6v0.8h-2.3v14.1h2.3v0.8h-5.6V256.9z"/>
	<path class="st4" d="M43.4,209.1c0-2.1-1.7-3.4-4.7-3.4h-2.9v6.8h3.3C41.7,212.5,43.4,211.1,43.4,209.1z"/>
	<path class="st4" d="M42.9,201.6c0-1.8-1.3-3.1-4.1-3.1h-3.1v6.5h3C41.6,204.9,42.9,203.4,42.9,201.6z"/>
	<path class="st4" d="M51.4,204c-1.9,0-3.5,1.5-3.7,3.7H55C54.9,205.7,53.7,204,51.4,204z"/>
	<path class="st4" d="M22.9,45C35.1,45,45,35.1,45,22.9c0-12.2-9.9-22.1-22.1-22.1c-12.2,0-22.1,9.9-22.1,22.1
		C0.8,35.1,10.7,45,22.9,45z M17.2,31.6h2.2V17.5h-2.2v-0.8H23c3.3,0,5.7,2,5.7,4.8c0,3-2.2,4.9-5.6,4.9c-0.9,0-2.2,0-2.7,0v5.3h2.3
		v0.8h-5.4V31.6z"/>
	<path class="st6" d="M0,22.9c0,12.6,10.3,22.9,22.9,22.9c12.6,0,22.9-10.3,22.9-22.9C45.7,10.3,35.5,0,22.9,0C10.3,0,0,10.3,0,22.9
		z M22.9,0.7C35.1,0.7,45,10.7,45,22.9C45,35.1,35.1,45,22.9,45C10.7,45,0.8,35.1,0.8,22.9C0.8,10.7,10.7,0.7,22.9,0.7z"/>
	<path class="st6" d="M21.4,159.5c0,12.6,10.3,22.9,22.9,22.9c12.6,0,22.9-10.3,22.9-22.9c0-12.6-10.3-22.9-22.9-22.9
		C31.6,136.6,21.4,146.9,21.4,159.5z M44.2,137.4c12.2,0,22.1,9.9,22.1,22.1c0,12.2-9.9,22.1-22.1,22.1c-12.2,0-22.1-9.9-22.1-22.1
		C22.1,147.3,32,137.4,44.2,137.4z"/>
	<path class="st6" d="M21.4,205.2c0,12.6,10.3,22.9,22.9,22.9c12.6,0,22.9-10.3,22.9-22.9c0-12.6-10.3-22.9-22.9-22.9
		C31.6,182.3,21.4,192.6,21.4,205.2z M44.2,183.1c12.2,0,22.1,9.9,22.1,22.1c0,12.2-9.9,22.1-22.1,22.1c-12.2,0-22.1-9.9-22.1-22.1
		C22.1,193,32,183.1,44.2,183.1z"/>
	<path class="st6" d="M21.4,250.9c0,12.6,10.3,22.9,22.9,22.9c12.6,0,22.9-10.3,22.9-22.9s-10.3-22.9-22.9-22.9
		C31.6,228.1,21.4,238.3,21.4,250.9z M44.2,228.8c12.2,0,22.1,9.9,22.1,22.1s-9.9,22.1-22.1,22.1c-12.2,0-22.1-9.9-22.1-22.1
		S32,228.8,44.2,228.8z"/>
	<path class="st6" d="M44.3,209.1c0-2-1.4-3.4-3.6-3.8c1.9-0.4,3.2-1.8,3.2-3.8c0-2-1.5-3.9-5-3.9h-6.3v0.8h2.2v14.1h-2.2v0.8h6.5
		C42.2,213.4,44.3,211.7,44.3,209.1z M35.8,198.4h3.1c2.8,0,4.1,1.3,4.1,3.1c0,1.8-1.3,3.3-4.2,3.3h-3V198.4z M35.8,205.7h2.9
		c3,0,4.7,1.3,4.7,3.4c0,2-1.7,3.4-4.3,3.4h-3.3V205.7z"/>
	<path class="st6" d="M51.9,213.6c1.3,0,2.5-0.4,3.5-1l0.1-0.9c-1.1,0.7-2.1,1.2-3.5,1.2c-2.5,0-4.2-1.5-4.3-4.3h8.2
		c0-0.1,0.1-0.3,0.1-0.6c0-2.4-1.6-4.7-4.4-4.7c-2.8,0-4.7,2.3-4.7,5.1C46.8,211.5,48.8,213.6,51.9,213.6z M51.4,204
		c2.3,0,3.5,1.6,3.6,3.7h-7.3C47.9,205.5,49.5,204,51.4,204z"/>
	<polygon class="st6" points="43.9,169.4 44.5,169.4 50.4,154.1 52.1,154.1 52.1,153.3 47.3,153.3 47.3,154.1 49.4,154.1 
		44.3,167.9 39.1,154.1 41.2,154.1 41.2,153.3 36.3,153.3 36.3,154.1 38.1,154.1 	"/>
	<polygon class="st6" points="40.5,256.9 38.2,256.9 38.2,242.8 40.5,242.8 40.5,241.9 34.9,241.9 34.9,242.8 37.2,242.8 
		37.2,256.9 34.9,256.9 34.9,257.7 40.5,257.7 	"/>
	<path class="st6" d="M47,256.9h-1.7v-6.4c1-1.2,2.3-2.2,3.8-2.2c1,0,1.7,0.4,2,1.1c0.2,0.4,0.3,1,0.3,1.7v5.8h-1.7v0.8H54v-0.8
		h-1.8V251c0-0.8-0.1-1.6-0.5-2.1c-0.5-0.8-1.3-1.3-2.6-1.3c-1.6,0-3,1.1-4,2.2v-2h-2.6v0.8h1.8v8.4h-1.8v0.8H47V256.9z"/>
	<path class="st6" d="M22.6,29.9h-2.3v-5.3c0.6,0,1.8,0,2.7,0c3.4,0,5.6-1.9,5.6-4.9c0-2.9-2.4-4.8-5.7-4.8h-5.8v0.8h2.2v14.1h-2.2
		v0.8h5.4V29.9z M20.3,15.8H23c2.7,0,4.6,1.6,4.6,4c0,2.4-1.7,4-4.6,4c-1,0-2.1,0-2.7,0V15.8z"/>
</g>
</svg>
