<?xml version="1.0" encoding="utf-8"?>
<!-- Generator: Adobe Illustrator 19.2.1, SVG Export Plug-In . SVG Version: 6.00 Build 0)  -->
<svg version="1.1" id="Calque_1" xmlns="http://www.w3.org/2000/svg" xmlns:xlink="http://www.w3.org/1999/xlink" x="0px" y="0px"
	 viewBox="0 0 443.8 66.7" style="enable-background:new 0 0 443.8 66.7;" xml:space="preserve">
<style type="text/css">
	.st0{fill:#FFFFFF;}
</style>
<g>
	<path class="st0" d="M64.8,23.9c-0.6-0.5-1.4-0.7-2.4-0.7s-1.8,0.2-2.4,0.7c-1.4,1.1-1.9,4-1.9,9.7s0.5,8.6,1.9,9.7
		c0.6,0.5,1.4,0.7,2.4,0.7s1.8-0.2,2.4-0.7c1.4-1.1,1.9-4.1,1.9-9.7S66.1,25,64.8,23.9z"/>
	<path class="st0" d="M360.1,34.3c-1.1,1-1.4,2.5-1.4,5.2c0,2.7,0.4,4.1,2,4.1c1.1,0,2.4-0.8,3.3-2.5c0.7-1.4,1.1-3.2,1.1-5.5V32
		c-0.8,0.4-1.7,0.7-2.6,1C361.6,33.3,360.7,33.7,360.1,34.3z"/>
	<path class="st0" d="M148.4,34.3c-1.1,1-1.4,2.5-1.4,5.2c0,2.7,0.4,4.1,2,4.1c1.1,0,2.4-0.8,3.3-2.5c0.7-1.4,1.1-3.2,1.1-5.5V32
		c-0.8,0.4-1.7,0.7-2.6,1S149,33.7,148.4,34.3z"/>
	<path class="st0" d="M37.3,14.6c-3.2,0-5.2,3.1-5.2,10.2c0,6.8,1.9,10.1,5.2,10.1c2.6,0,3.8-1.2,3.8-10.1
		C41.1,15.8,39.9,14.6,37.3,14.6z"/>
	<path class="st0" d="M0,0v66.7h443.8V0H0z M384.2,11.4c1.8,0,3.6,1.2,3.6,3.6s-1.8,3.6-3.6,3.6s-3.6-1.2-3.6-3.6
		C380.6,12.6,382.4,11.4,384.2,11.4z M172.5,11.4c1.8,0,3.6,1.2,3.6,3.6s-1.8,3.6-3.6,3.6s-3.6-1.2-3.6-3.6
		C168.8,12.6,170.7,11.4,172.5,11.4z M38.2,36.3c-3.3,0-5.2-2-6.1-5H32c0,0.9,0.2,3.5,0.2,5.1v7.9c0,0.4,0.1,0.6,0.5,0.7l4.7,0.3
		c0.4,0,0.6,0.3,0.6,0.7c0,0.4-0.3,0.7-0.6,0.7h-0.1c-1.9,0-6.3-0.1-8.2-0.1c-1.7,0-5.8,0.1-7.4,0.1h0c-0.3,0-0.6-0.3-0.6-0.7
		c0-0.3,0.3-0.7,0.7-0.7l3.6-0.2c0.4,0,0.7-0.3,0.7-0.7V16.6c0-0.8-0.5-1.3-1.4-1.3l-3.3-0.1c-0.3,0-0.6-0.3-0.6-0.7
		c0-0.3,0.2-0.7,0.6-0.7c2.2,0,7.8-0.1,10.2-0.1c0.4,0,0.6,0.2,0.6,0.6l-0.2,3.9h0.1c0.8-3,2.8-5.1,6-5.1c4.1,0,9.7,5.4,9.7,11.7
		C47.8,30.8,43.2,36.3,38.2,36.3z M67.9,43.5c-1.5,1-3.9,1.7-5.5,1.7c-2.2,0-4.1-0.7-5.5-1.7c-4-2.6-5.5-6.2-5.5-10s1.6-7.4,5.5-9.9
		c1.3-0.8,3.5-1.7,5.5-1.7c2,0,4,0.7,5.5,1.7c4,2.6,5.5,6.2,5.5,9.9S71.8,40.9,67.9,43.5z M92.8,30.3c-2,0-3.1-1.5-3.1-2.9
		c0-0.6,0.1-1.1,0.4-1.5c0.4-0.6,0.8-0.8,1.3-1.2c0.3-0.2,0.6-0.5,0.6-0.8c0-0.3-0.2-0.8-1.3-0.8c-3.1,0-4.5,4-4.5,6.8v12.6
		c0,0.4,0.1,0.6,0.7,0.6l2.7,0.1c0.4,0,0.7,0.3,0.7,0.6c0,0.4-0.3,0.7-0.6,0.7h-0.1c-1.5,0-4.7-0.1-6.5-0.1c-2,0-4.1,0.1-6.1,0.1
		h-0.1c-0.3,0-0.6-0.3-0.6-0.7c0-0.3,0.2-0.6,0.7-0.6l2.5-0.1c0.5,0,0.6-0.1,0.6-0.6v-17c0-0.8-0.4-1.3-1.3-1.3L76.1,24
		c-0.4,0-0.6-0.3-0.6-0.7c0-0.3,0.2-0.7,0.6-0.7c2.2,0,7.1-0.2,9.5-0.4c0.4,0,0.6,0.2,0.6,0.6v0.3L86,26.4h0.1
		c0.8-3.2,3-4.5,5.3-4.5c3.4,0,5,2.3,5,4.5C96.4,28.4,95.1,30.3,92.8,30.3z M115.4,40.8c-0.9,3.4-2.8,4.4-6.1,4.4
		c-3.7,0-7.1-1.7-7.1-6v-0.4c0-4.9,0.1-10.4,0.1-14.1v-0.4c0,0,0-0.1-0.1-0.1H98c-0.3,0-0.5-0.2-0.5-0.5c0-0.2,0.1-0.4,0.5-0.5
		l1.7-0.3c2.7-0.4,4.4-2.3,6.3-8.4l0.8-2.6c0.2-0.6,0.6-0.8,0.9-0.8c0.4,0,0.7,0.3,0.7,0.8v10.6c0,0.1,0,0.2,0.1,0.2h0.2
		c1.9,0,4.2-0.1,5.5-0.1h0.1c0.4,0,0.8,0.4,0.8,0.9c0,0.4-0.3,0.8-0.8,0.8h-0.1c-1.3,0-3.7-0.1-5.5-0.1h-0.2c-0.1,0-0.1,0-0.1,0.1
		v15.5c0,1.9,0.7,3.7,2.8,3.7c1.9,0,2.5-1.4,2.9-3c0.3-1.4,0.5-3.3,0.5-6.2c0-0.3,0.3-0.6,0.6-0.6c0.3,0,0.5,0.2,0.6,0.5
		c0,0.4,0,1,0,1.6C115.9,37.9,115.7,39.8,115.4,40.8z M134.8,30.3c-2,0-3.1-1.5-3.1-2.9c0-0.6,0.1-1.1,0.4-1.5
		c0.4-0.6,0.8-0.8,1.3-1.2c0.3-0.2,0.6-0.5,0.6-0.8c0-0.3-0.2-0.8-1.3-0.8c-3.1,0-4.5,4-4.5,6.8v12.6c0,0.4,0.1,0.6,0.7,0.6l2.7,0.1
		c0.4,0,0.7,0.3,0.7,0.6c0,0.4-0.3,0.7-0.6,0.7h-0.1c-1.5,0-4.7-0.1-6.5-0.1c-2,0-4.1,0.1-6.1,0.1H119c-0.3,0-0.6-0.3-0.6-0.7
		c0-0.3,0.2-0.6,0.7-0.6l2.5-0.1c0.5,0,0.6-0.1,0.6-0.6v-17c0-0.8-0.4-1.3-1.3-1.3l-2.7-0.1c-0.4,0-0.6-0.3-0.6-0.7
		c0-0.3,0.2-0.7,0.6-0.7c2.2,0,7.1-0.2,9.5-0.4c0.4,0,0.6,0.2,0.6,0.6v0.3l-0.1,3.3h0.1c0.8-3.2,3-4.5,5.3-4.5c3.4,0,5,2.3,5,4.5
		C138.5,28.4,137.2,30.3,134.8,30.3z M164.1,42.1c-0.7,2.3-2,3-4.9,3c-1.4,0-2.8-0.2-3.7-0.6c-1.3-0.7-2.2-1.9-2.2-3.7h-0.1
		c-0.8,3-3.4,4.3-6.3,4.3c-4,0-6.1-2.3-6.1-5.2c0-3.1,1.8-5.1,4.4-6.1c2.3-0.9,5.5-1.7,6.9-2.2c1.2-0.4,1.2-0.8,1.2-1.5V27
		c0-2.9-0.6-4-3.8-4c-1.9,0-4,0.6-4,1.4c0,0.4,0.3,0.5,0.6,0.7l0.4,0.2c1,0.7,1.6,1.7,1.6,2.7c0,2.3-1.7,3.3-3.5,3.3
		s-3.5-1.2-3.5-3.5c0-1.5,0.8-3.2,2.8-4.4c1.7-1.1,4.2-1.7,7-1.7c5.6,0,8.7,2.2,8.7,6.1v13.7c0,1.3,0.5,1.9,1.7,1.9
		c2.1,0,2.1-3.7,2.1-5c0-1.6,0-2.8,0-3c0-0.3,0.2-0.5,0.5-0.5c0.2,0,0.5,0.2,0.5,0.5c0.1,0.9,0.2,2.2,0.2,3.1
		C164.5,39.8,164.4,41,164.1,42.1z M178.9,44.5L178.9,44.5c-1.6,0-4.2-0.1-5.9-0.1c-2,0-4.4,0.1-6.4,0.1h0c-0.3,0-0.6-0.3-0.6-0.7
		c0-0.3,0.2-0.6,0.7-0.6l2.5-0.1c0.4,0,0.5-0.2,0.5-0.6v-17c0-0.8-0.3-1.3-1.2-1.3l-2.7-0.1c-0.4,0-0.6-0.4-0.6-0.7s0.2-0.7,0.6-0.7
		c2.9,0,7.5-0.1,9.6-0.4c0.4,0,0.5,0.2,0.5,0.6v19.6c0,0.4,0.2,0.6,0.6,0.6l2.4,0.1c0.4,0,0.7,0.3,0.7,0.6
		C179.4,44.2,179.2,44.5,178.9,44.5z M198,40.8c-0.9,3.4-2.8,4.4-6.1,4.4c-3.7,0-7.1-1.7-7.1-6v-0.4c0-4.9,0.1-10.4,0.1-14.1v-0.4
		c0,0,0-0.1-0.1-0.1h-4.1c-0.3,0-0.5-0.2-0.5-0.5c0-0.2,0.1-0.4,0.5-0.5l1.7-0.3c2.7-0.4,4.4-2.3,6.3-8.4l0.8-2.6
		c0.2-0.6,0.6-0.8,0.9-0.8c0.4,0,0.7,0.3,0.7,0.8v10.6c0,0.1,0,0.2,0.1,0.2h0.2c1.9,0,4.2-0.1,5.5-0.1h0.1c0.4,0,0.8,0.4,0.8,0.9
		c0,0.4-0.3,0.8-0.8,0.8h-0.1c-1.3,0-3.7-0.1-5.5-0.1h-0.2c-0.1,0-0.1,0-0.1,0.1v15.5c0,1.9,0.7,3.7,2.8,3.7c1.9,0,2.5-1.4,2.9-3
		c0.3-1.4,0.5-3.3,0.5-6.2c0-0.3,0.3-0.6,0.6-0.6c0.3,0,0.5,0.2,0.6,0.5c0,0.4,0,1,0,1.6C198.5,37.9,198.2,39.8,198,40.8z
		 M217.6,43.4c-1.4,1.2-3.4,1.8-5.6,1.8c-1.9,0-3.8-0.6-5.4-1.7c-0.6-0.5-0.8-0.6-1.1-0.6c-0.3,0-0.7,0.3-1,0.7l-1.3,1.6
		c-0.2,0.2-0.4,0.3-0.7,0.3c-0.2,0-0.5-0.1-0.5-0.5c0-0.5,0.3-1.8,0.3-4.4s-0.1-4-0.1-4.3c0-0.2,0.2-0.4,0.4-0.4
		c0.2,0,0.4,0.1,0.5,0.3c1.1,2.6,2.1,4.4,3.5,5.8c1.4,1.3,2.9,2,5.2,2c3.3,0,4.8-1.1,4.8-3.4c0-1.3-0.5-2.2-2.6-2.9
		c-2.7-0.9-5.3-1.4-8.2-2.3c-3.1-1-4-3.2-4-6.2c0-1.1,0.2-2.3,0.6-3.3c1.1-2.7,3.8-4.1,6.6-4.1c1.5,0,3.1,0.5,4.4,1.4l0.8,0.6
		c0.2,0.1,0.3,0.1,0.4,0.1c0.2,0,0.3-0.1,0.5-0.2c0.6-0.4,1.6-1.5,2-1.9c0.2-0.2,0.4-0.2,0.5-0.2c0.3,0,0.6,0.1,0.6,0.5
		c0,0.3-0.3,1.8-0.3,4c0,1.3,0.2,3.2,0.2,3.9c0,0.3-0.2,0.5-0.5,0.5c-0.2,0-0.4-0.1-0.5-0.3c-0.6-1.5-1-2.2-2-3.7
		c-1.5-2.4-4.1-3.4-6.1-3.4c-3.9,0-4.8,2.2-4.8,3.4c0,1.7,0.6,2.5,3.2,3.2c2.3,0.6,5.5,1.4,7.7,2c3.2,0.9,4.3,2.8,4.3,6.6
		C219.7,40.4,219,42.2,217.6,43.4z M251.4,24.2h-0.1l-4.3,0h-0.1c0,0-0.1,0-0.1,0.2v18.1c0,0.4,0.1,0.6,0.6,0.6l3.3,0.1
		c0.4,0,0.7,0.3,0.7,0.6c0,0.5-0.3,0.7-0.7,0.7c-0.4,0-5.5-0.1-7.4-0.1c-1.7,0-4.7,0.1-6.2,0.1h0c-0.3,0-0.5-0.3-0.5-0.7
		c0-0.3,0.2-0.6,0.6-0.6l3-0.1c0.4,0,0.6-0.2,0.6-0.6V24.4c0-0.1,0-0.2-0.1-0.2h-0.1l-3.5,0h-0.3c-0.3,0-0.5-0.4-0.5-0.8
		c0-0.4,0.2-0.8,0.5-0.8h0.3l3.4,0h0.2c0.1,0,0.1-0.1,0.1-0.2v-2.5c0-4.9,3.2-9.8,9.8-9.8c3.8,0,6.5,2.1,6.5,4.8
		c0,2.5-1.7,3.6-3.3,3.6c-1.9,0-3-1.6-3-3.1c0-0.7,0.2-1.4,0.6-1.9c0.4-0.5,0.9-0.8,1.3-1.1c0.2-0.1,0.3-0.3,0.3-0.5
		c0-0.6-0.8-1-2.5-1c-2.6,0-3.5,1.1-3.5,5.2v6.2c0,0.2,0,0.2,0.1,0.2h0.1l4.3,0h0.2c0.3,0,0.6,0.3,0.6,0.8
		C251.9,23.9,251.7,24.2,251.4,24.2z M270,30.3c-2,0-3.1-1.5-3.1-2.9c0-0.6,0.1-1.1,0.4-1.5c0.4-0.6,0.8-0.8,1.3-1.2
		c0.3-0.2,0.6-0.5,0.6-0.8c0-0.3-0.2-0.8-1.3-0.8c-3.1,0-4.5,4-4.5,6.8v12.6c0,0.4,0.1,0.6,0.7,0.6l2.7,0.1c0.4,0,0.7,0.3,0.7,0.6
		c0,0.4-0.3,0.7-0.6,0.7h-0.1c-1.5,0-4.7-0.1-6.5-0.1c-2,0-4.1,0.1-6.1,0.1h-0.1c-0.3,0-0.6-0.3-0.6-0.7c0-0.3,0.2-0.6,0.7-0.6
		l2.5-0.1c0.5,0,0.6-0.1,0.6-0.6v-17c0-0.8-0.4-1.3-1.3-1.3l-2.7-0.1c-0.4,0-0.6-0.3-0.6-0.7c0-0.3,0.2-0.7,0.6-0.7
		c2.2,0,7.1-0.2,9.5-0.4c0.4,0,0.6,0.2,0.6,0.6v0.3l-0.1,3.3h0.1c0.8-3.2,3-4.5,5.3-4.5c3.4,0,5,2.3,5,4.5
		C273.7,28.4,272.4,30.3,270,30.3z M299.3,42.1c-0.7,2.3-2,3-4.9,3c-1.4,0-2.8-0.2-3.7-0.6c-1.3-0.7-2.2-1.9-2.2-3.7h-0.1
		c-0.8,3-3.4,4.3-6.3,4.3c-4,0-6.1-2.3-6.1-5.2c0-3.1,1.8-5.1,4.4-6.1c2.3-0.9,5.5-1.7,6.9-2.2c1.2-0.4,1.2-0.8,1.2-1.5V27
		c0-2.9-0.6-4-3.8-4c-1.9,0-4,0.6-4,1.4c0,0.4,0.3,0.5,0.6,0.7l0.4,0.2c1,0.7,1.6,1.7,1.6,2.7c0,2.3-1.7,3.3-3.5,3.3
		s-3.5-1.2-3.5-3.5c0-1.5,0.8-3.2,2.8-4.4c1.7-1.1,4.2-1.7,7-1.7c5.6,0,8.7,2.2,8.7,6.1v13.7c0,1.3,0.5,1.9,1.7,1.9
		c2.1,0,2.1-3.7,2.1-5c0-1.6,0-2.8,0-3c0-0.3,0.2-0.5,0.5-0.5c0.2,0,0.5,0.2,0.5,0.5c0.1,0.9,0.2,2.2,0.2,3.1
		C299.8,39.8,299.7,41,299.3,42.1z M327.6,44.5L327.6,44.5c-2,0-4.1-0.1-6-0.1c-1.7,0-4.1,0.1-5.6,0.1h-0.1c-0.3,0-0.6-0.3-0.6-0.7
		c0-0.3,0.2-0.6,0.6-0.6l1.8-0.1c0.4,0,0.5-0.1,0.5-0.7V28.2c0-3.6-0.9-4.7-2.8-4.7c-2.9,0-4.7,4.1-4.7,7v12c0,0.5,0.1,0.6,0.6,0.7
		l1.8,0.1c0.4,0,0.6,0.3,0.6,0.6c0,0.4-0.3,0.7-0.6,0.7h-0.1c-1.5,0-3.7-0.1-5.5-0.1c-2,0-4.1,0.1-6,0.1h-0.1
		c-0.3,0-0.6-0.3-0.6-0.7c0-0.3,0.2-0.6,0.6-0.6l2.5-0.1c0.4,0,0.5-0.1,0.5-0.6v-17c0-0.8-0.4-1.3-1.3-1.3l-2.4-0.1
		c-0.4,0-0.6-0.3-0.6-0.7s0.2-0.7,0.6-0.7c2.2,0,6.8-0.2,9.2-0.4c0.4,0,0.6,0.2,0.6,0.6v3.4h0.1c0.6-1.9,2.8-4.3,6.4-4.3
		c4.5,0,7.2,2.9,7.2,6.9v13.7c0,0.5,0.1,0.6,0.5,0.6l2.5,0.1c0.4,0,0.7,0.3,0.7,0.6C328.1,44.2,327.9,44.5,327.6,44.5z M349.7,35.5
		c0,2.7-1,5.8-3.1,7.8c-1.5,1.4-3.3,2-5.3,2h-0.5l-0.3,0.4c-0.1,0.2-0.2,0.3-0.2,0.4c0,0.1,0.1,0.2,0.3,0.3l0.5,0.1
		c2.1,0.6,3.3,2.2,3.3,3.9c0,1.9-1.7,4.1-6.1,4.1c-0.5,0-2-0.1-2.6-0.2c-0.4,0-0.5-0.3-0.5-0.6c0-0.3,0.2-0.5,0.6-0.5
		c0.2,0,0.6,0,0.9,0c2.4,0,3.2-0.8,3.2-2c0-0.8-0.5-1.9-2.1-2.1l-0.4,0c-0.2,0-0.4-0.2-0.4-0.4c0-0.1,0-0.2,0.2-0.4l2.3-3.1
		c-5.1-0.9-9.4-5.8-9.4-11.5c0-5.8,4.9-11.7,11.3-11.7c4.8,0,8,3.1,8,6.4c0,2-1.4,3.4-3.5,3.4c-2.4,0-3.5-1.6-3.5-3.3
		c0-1.1,0.6-2.3,1.6-2.8c0.6-0.3,0.8-0.6,0.8-1c0-0.6-0.7-1.7-3.3-1.7c-3.5,0-4.8,1.7-4.8,10.6c0,9.1,1.2,10.2,4.4,10.2
		c4.8,0,6.9-4.1,7.2-8.4c0-0.4,0.4-0.7,0.7-0.7C349.4,34.7,349.7,34.9,349.7,35.5L349.7,35.5z M375.9,42.1c-0.7,2.3-2,3-4.9,3
		c-1.4,0-2.8-0.2-3.7-0.6c-1.3-0.7-2.2-1.9-2.2-3.7H365c-0.8,3-3.4,4.3-6.3,4.3c-4,0-6.1-2.3-6.1-5.2c0-3.1,1.8-5.1,4.4-6.1
		c2.3-0.9,5.5-1.7,6.9-2.2c1.2-0.4,1.2-0.8,1.2-1.5V27c0-2.9-0.6-4-3.8-4c-1.9,0-4,0.6-4,1.4c0,0.4,0.3,0.5,0.6,0.7l0.4,0.2
		c1,0.7,1.6,1.7,1.6,2.7c0,2.3-1.7,3.3-3.5,3.3s-3.5-1.2-3.5-3.5c0-1.5,0.8-3.2,2.8-4.4c1.7-1.1,4.2-1.7,7-1.7
		c5.6,0,8.7,2.2,8.7,6.1v13.7c0,1.3,0.5,1.9,1.7,1.9c2.1,0,2.1-3.7,2.1-5c0-1.6,0-2.8,0-3c0-0.3,0.2-0.5,0.5-0.5s0.5,0.2,0.5,0.5
		c0.1,0.9,0.2,2.2,0.2,3.1C376.3,39.8,376.2,41,375.9,42.1z M390.7,44.5L390.7,44.5c-1.6,0-4.2-0.1-5.9-0.1c-2,0-4.4,0.1-6.4,0.1h0
		c-0.3,0-0.6-0.3-0.6-0.7c0-0.3,0.2-0.6,0.7-0.6l2.5-0.1c0.4,0,0.5-0.2,0.5-0.6v-17c0-0.8-0.3-1.3-1.2-1.3l-2.7-0.1
		c-0.4,0-0.6-0.4-0.6-0.7s0.2-0.7,0.6-0.7c2.9,0,7.5-0.1,9.6-0.4c0.4,0,0.5,0.2,0.5,0.6v19.6c0,0.4,0.2,0.6,0.6,0.6l2.4,0.1
		c0.4,0,0.7,0.3,0.7,0.6C391.2,44.2,390.9,44.5,390.7,44.5z M409.3,43.4c-1.4,1.2-3.4,1.8-5.6,1.8c-1.9,0-3.8-0.6-5.4-1.7
		c-0.6-0.5-0.8-0.6-1.1-0.6c-0.3,0-0.7,0.3-1,0.7l-1.3,1.6c-0.2,0.2-0.4,0.3-0.7,0.3c-0.2,0-0.5-0.1-0.5-0.5c0-0.5,0.3-1.8,0.3-4.4
		s-0.1-4-0.1-4.3c0-0.2,0.2-0.4,0.4-0.4c0.2,0,0.4,0.1,0.5,0.3c1.1,2.6,2.1,4.4,3.5,5.8c1.4,1.3,2.9,2,5.2,2c3.3,0,4.8-1.1,4.8-3.4
		c0-1.3-0.5-2.2-2.6-2.9c-2.7-0.9-5.3-1.4-8.2-2.3c-3.1-1-4-3.2-4-6.2c0-1.1,0.2-2.3,0.6-3.3c1.1-2.7,3.8-4.1,6.6-4.1
		c1.5,0,3.1,0.5,4.4,1.4l0.8,0.6c0.2,0.1,0.3,0.1,0.4,0.1c0.2,0,0.3-0.1,0.5-0.2c0.6-0.4,1.6-1.5,2-1.9c0.2-0.2,0.4-0.2,0.5-0.2
		c0.3,0,0.6,0.1,0.6,0.5c0,0.3-0.3,1.8-0.3,4c0,1.3,0.2,3.2,0.2,3.9c0,0.3-0.2,0.5-0.5,0.5c-0.2,0-0.4-0.1-0.5-0.3
		c-0.6-1.5-1-2.2-2-3.7c-1.5-2.4-4.1-3.4-6.1-3.4c-3.9,0-4.8,2.2-4.8,3.4c0,1.7,0.6,2.5,3.2,3.2c2.3,0.6,5.5,1.4,7.7,2
		c3.2,0.9,4.3,2.8,4.3,6.6C411.4,40.4,410.8,42.2,409.3,43.4z M419.1,45.3c-1.9,0-3.9-1.3-3.9-3.8c0-2.6,1.9-3.9,3.9-3.9
		s3.8,1.3,3.8,3.9C422.9,44,421.1,45.3,419.1,45.3z"/>
	<path class="st0" d="M283.6,34.3c-1.1,1-1.4,2.5-1.4,5.2c0,2.7,0.4,4.1,2,4.1c1.1,0,2.4-0.8,3.3-2.5c0.7-1.4,1.1-3.2,1.1-5.5V32
		c-0.8,0.4-1.7,0.7-2.6,1S284.2,33.7,283.6,34.3z"/>
</g>
</svg>
