<?xml version="1.0" encoding="utf-8"?>
<!-- Generator: Adobe Illustrator 19.2.1, SVG Export Plug-In . SVG Version: 6.00 Build 0)  -->
<svg version="1.1" id="Calque_1" xmlns="http://www.w3.org/2000/svg" xmlns:xlink="http://www.w3.org/1999/xlink" x="0px" y="0px"
	 viewBox="0 0 1190.6 841.9" style="enable-background:new 0 0 1190.6 841.9;" xml:space="preserve">
<style type="text/css">
	.st0{fill:#FFFFFF;}
</style>
<g>
	<path class="st0" d="M717.7,418.5c-1.1,1-1.4,2.5-1.4,5.2c0,2.7,0.4,4.1,2,4.1c1.1,0,2.4-0.8,3.3-2.5c0.7-1.4,1.1-3.2,1.1-5.5v-3.6
		c-0.8,0.4-1.7,0.7-2.6,1C719.2,417.5,718.3,417.9,717.7,418.5z"/>
	<path class="st0" d="M370,385.7v55.6h418.7v-55.6H370z M741.8,395.6c1.8,0,3.6,1.2,3.6,3.6s-1.8,3.6-3.6,3.6s-3.6-1.2-3.6-3.6
		C738.2,396.8,740,395.6,741.8,395.6z M530.1,395.6c1.8,0,3.6,1.2,3.6,3.6s-1.8,3.6-3.6,3.6s-3.6-1.2-3.6-3.6
		C526.5,396.8,528.3,395.6,530.1,395.6z M395.8,420.5c-3.3,0-5.2-2-6.1-5h-0.1c0,0.9,0.2,3.5,0.2,5.1v7.9c0,0.4,0.1,0.6,0.5,0.7
		l4.7,0.3c0.4,0,0.6,0.3,0.6,0.7c0,0.4-0.3,0.7-0.6,0.7h-0.1c-1.9,0-6.3-0.1-8.2-0.1c-1.7,0-5.8,0.1-7.4,0.1h0
		c-0.3,0-0.6-0.3-0.6-0.7c0-0.3,0.3-0.7,0.7-0.7l3.6-0.2c0.4,0,0.7-0.3,0.7-0.7v-27.7c0-0.8-0.5-1.3-1.4-1.3l-3.3-0.1
		c-0.3,0-0.6-0.3-0.6-0.7c0-0.3,0.2-0.7,0.6-0.7c2.2,0,7.8-0.1,10.2-0.1c0.4,0,0.6,0.2,0.6,0.6l-0.2,3.9h0.1c0.8-3,2.8-5.1,6-5.1
		c4.1,0,9.7,5.4,9.7,11.7C405.4,415,400.8,420.5,395.8,420.5z M425.5,427.7c-1.5,1-3.9,1.7-5.5,1.7c-2.2,0-4.1-0.7-5.5-1.7
		c-4-2.6-5.5-6.2-5.5-10s1.6-7.4,5.5-9.9c1.3-0.8,3.5-1.7,5.5-1.7c2,0,4,0.7,5.5,1.7c4,2.6,5.5,6.2,5.5,9.9S429.4,425.1,425.5,427.7
		z M450.4,414.5c-2,0-3.1-1.5-3.1-2.9c0-0.6,0.1-1.1,0.4-1.5c0.4-0.6,0.8-0.8,1.3-1.2c0.3-0.2,0.6-0.5,0.6-0.8
		c0-0.3-0.2-0.8-1.3-0.8c-3.1,0-4.5,4-4.5,6.8v12.6c0,0.4,0.1,0.6,0.7,0.6l2.7,0.1c0.4,0,0.7,0.3,0.7,0.6c0,0.4-0.3,0.7-0.6,0.7
		h-0.1c-1.5,0-4.7-0.1-6.5-0.1c-2,0-4.1,0.1-6.1,0.1h-0.1c-0.3,0-0.6-0.3-0.6-0.7c0-0.3,0.2-0.6,0.7-0.6l2.5-0.1
		c0.5,0,0.6-0.1,0.6-0.6v-17c0-0.8-0.4-1.3-1.3-1.3l-2.7-0.1c-0.4,0-0.6-0.3-0.6-0.7c0-0.3,0.2-0.7,0.6-0.7c2.2,0,7.1-0.2,9.5-0.4
		c0.4,0,0.6,0.2,0.6,0.6v0.3l-0.1,3.3h0.1c0.8-3.2,3-4.5,5.3-4.5c3.4,0,5,2.3,5,4.5C454.1,412.6,452.7,414.5,450.4,414.5z M473,425
		c-0.9,3.4-2.8,4.4-6.1,4.4c-3.7,0-7.1-1.7-7.1-6V423c0-4.9,0.1-10.4,0.1-14.1v-0.4c0,0,0-0.1-0.1-0.1h-4.1c-0.3,0-0.5-0.2-0.5-0.5
		c0-0.2,0.1-0.4,0.5-0.5l1.7-0.3c2.7-0.4,4.4-2.3,6.3-8.4l0.8-2.6c0.2-0.6,0.6-0.8,0.9-0.8c0.4,0,0.7,0.3,0.7,0.8v10.6
		c0,0.1,0,0.2,0.1,0.2h0.2c1.9,0,4.2-0.1,5.5-0.1h0.1c0.4,0,0.8,0.4,0.8,0.9c0,0.4-0.3,0.8-0.8,0.8H472c-1.3,0-3.7-0.1-5.5-0.1h-0.2
		c-0.1,0-0.1,0-0.1,0.1V424c0,1.9,0.7,3.7,2.8,3.7c1.9,0,2.5-1.4,2.9-3c0.3-1.4,0.5-3.3,0.5-6.2c0-0.3,0.3-0.6,0.6-0.6
		c0.3,0,0.5,0.2,0.6,0.5c0,0.4,0,1,0,1.6C473.6,422,473.3,424,473,425z M492.4,414.5c-2,0-3.1-1.5-3.1-2.9c0-0.6,0.1-1.1,0.4-1.5
		c0.4-0.6,0.8-0.8,1.3-1.2c0.3-0.2,0.6-0.5,0.6-0.8c0-0.3-0.2-0.8-1.3-0.8c-3.1,0-4.5,4-4.5,6.8v12.6c0,0.4,0.1,0.6,0.7,0.6l2.7,0.1
		c0.4,0,0.7,0.3,0.7,0.6c0,0.4-0.3,0.7-0.6,0.7h-0.1c-1.5,0-4.7-0.1-6.5-0.1c-2,0-4.1,0.1-6.1,0.1h-0.1c-0.3,0-0.6-0.3-0.6-0.7
		c0-0.3,0.2-0.6,0.7-0.6l2.5-0.1c0.5,0,0.6-0.1,0.6-0.6v-17c0-0.8-0.4-1.3-1.3-1.3l-2.7-0.1c-0.4,0-0.6-0.3-0.6-0.7
		c0-0.3,0.2-0.7,0.6-0.7c2.2,0,7.1-0.2,9.5-0.4c0.4,0,0.6,0.2,0.6,0.6v0.3l-0.1,3.3h0.1c0.8-3.2,3-4.5,5.3-4.5c3.4,0,5,2.3,5,4.5
		C496.1,412.6,494.8,414.5,492.4,414.5z M521.7,426.3c-0.7,2.3-2,3-4.9,3c-1.4,0-2.8-0.2-3.7-0.6c-1.3-0.7-2.2-1.9-2.2-3.7h-0.1
		c-0.8,3-3.4,4.3-6.3,4.3c-4,0-6.1-2.3-6.1-5.2c0-3.1,1.8-5.1,4.4-6.1c2.3-0.9,5.5-1.7,6.9-2.2c1.2-0.4,1.2-0.8,1.2-1.5v-3.1
		c0-2.9-0.6-4-3.8-4c-1.9,0-4,0.6-4,1.4c0,0.4,0.3,0.5,0.6,0.7l0.4,0.2c1,0.7,1.6,1.7,1.6,2.7c0,2.3-1.7,3.3-3.5,3.3
		s-3.5-1.2-3.5-3.5c0-1.5,0.8-3.2,2.8-4.4c1.7-1.1,4.2-1.7,7-1.7c5.6,0,8.7,2.2,8.7,6.1v13.7c0,1.3,0.5,1.9,1.7,1.9
		c2.1,0,2.1-3.7,2.1-5c0-1.6,0-2.8,0-3c0-0.3,0.2-0.5,0.5-0.5c0.2,0,0.5,0.2,0.5,0.5c0.1,0.9,0.2,2.2,0.2,3.1
		C522.2,424,522.1,425.2,521.7,426.3z M536.5,428.7L536.5,428.7c-1.6,0-4.2-0.1-5.9-0.1c-2,0-4.4,0.1-6.4,0.1h0
		c-0.3,0-0.6-0.3-0.6-0.7c0-0.3,0.2-0.6,0.7-0.6l2.5-0.1c0.4,0,0.5-0.2,0.5-0.6v-17c0-0.8-0.3-1.3-1.2-1.3l-2.7-0.1
		c-0.4,0-0.6-0.4-0.6-0.7s0.2-0.7,0.6-0.7c2.9,0,7.5-0.1,9.6-0.4c0.4,0,0.5,0.2,0.5,0.6v19.6c0,0.4,0.2,0.6,0.6,0.6l2.4,0.1
		c0.4,0,0.7,0.3,0.7,0.6C537.1,428.4,536.8,428.7,536.5,428.7z M555.6,425c-0.9,3.4-2.8,4.4-6.1,4.4c-3.7,0-7.1-1.7-7.1-6V423
		c0-4.9,0.1-10.4,0.1-14.1v-0.4c0,0,0-0.1-0.1-0.1h-4.1c-0.3,0-0.5-0.2-0.5-0.5c0-0.2,0.1-0.4,0.5-0.5l1.7-0.3
		c2.7-0.4,4.4-2.3,6.3-8.4l0.8-2.6c0.2-0.6,0.6-0.8,0.9-0.8c0.4,0,0.7,0.3,0.7,0.8v10.6c0,0.1,0,0.2,0.1,0.2h0.2
		c1.9,0,4.2-0.1,5.5-0.1h0.1c0.4,0,0.8,0.4,0.8,0.9c0,0.4-0.3,0.8-0.8,0.8h-0.1c-1.3,0-3.7-0.1-5.5-0.1h-0.2c-0.1,0-0.1,0-0.1,0.1
		V424c0,1.9,0.7,3.7,2.8,3.7c1.9,0,2.5-1.4,2.9-3c0.3-1.4,0.5-3.3,0.5-6.2c0-0.3,0.3-0.6,0.6-0.6c0.3,0,0.5,0.2,0.6,0.5
		c0,0.4,0,1,0,1.6C556.1,422,555.9,424,555.6,425z M575.2,427.6c-1.4,1.2-3.4,1.8-5.6,1.8c-1.9,0-3.8-0.6-5.4-1.7
		c-0.6-0.5-0.8-0.6-1.1-0.6c-0.3,0-0.7,0.3-1,0.7l-1.3,1.6c-0.2,0.2-0.4,0.3-0.7,0.3c-0.2,0-0.5-0.1-0.5-0.5c0-0.5,0.3-1.8,0.3-4.4
		s-0.1-4-0.1-4.3c0-0.2,0.2-0.4,0.4-0.4c0.2,0,0.4,0.1,0.5,0.3c1.1,2.6,2.1,4.4,3.5,5.8c1.4,1.3,2.9,2,5.2,2c3.3,0,4.8-1.1,4.8-3.4
		c0-1.3-0.5-2.2-2.6-2.9c-2.7-0.9-5.3-1.4-8.2-2.3c-3.1-1-4-3.2-4-6.2c0-1.1,0.2-2.3,0.6-3.3c1.1-2.7,3.8-4.1,6.6-4.1
		c1.5,0,3.1,0.5,4.4,1.4l0.8,0.6c0.2,0.1,0.3,0.1,0.4,0.1c0.2,0,0.3-0.1,0.5-0.2c0.6-0.4,1.6-1.5,2-1.9c0.2-0.2,0.4-0.2,0.5-0.2
		c0.3,0,0.6,0.1,0.6,0.5c0,0.3-0.3,1.8-0.3,4c0,1.3,0.2,3.2,0.2,3.9c0,0.3-0.2,0.5-0.5,0.5c-0.2,0-0.4-0.1-0.5-0.3
		c-0.6-1.5-1-2.2-2-3.7c-1.5-2.4-4.1-3.4-6.1-3.4c-3.9,0-4.8,2.2-4.8,3.4c0,1.7,0.6,2.5,3.2,3.2c2.3,0.6,5.5,1.4,7.7,2
		c3.2,0.9,4.3,2.8,4.3,6.6C577.3,424.6,576.7,426.4,575.2,427.6z M609,408.4h-0.1l-4.3,0h-0.1c0,0-0.1,0-0.1,0.2v18.1
		c0,0.4,0.1,0.6,0.6,0.6l3.3,0.1c0.4,0,0.7,0.3,0.7,0.6c0,0.5-0.3,0.7-0.7,0.7c-0.4,0-5.5-0.1-7.4-0.1c-1.7,0-4.7,0.1-6.2,0.1h0
		c-0.3,0-0.5-0.3-0.5-0.7c0-0.3,0.2-0.6,0.6-0.6l3-0.1c0.4,0,0.6-0.2,0.6-0.6v-18.1c0-0.1,0-0.2-0.1-0.2h-0.1l-3.5,0H594
		c-0.3,0-0.5-0.4-0.5-0.8c0-0.4,0.2-0.8,0.5-0.8h0.3l3.4,0h0.2c0.1,0,0.1-0.1,0.1-0.2v-2.5c0-4.9,3.2-9.8,9.8-9.8
		c3.8,0,6.5,2.1,6.5,4.8c0,2.5-1.7,3.6-3.3,3.6c-1.9,0-3-1.6-3-3.1c0-0.7,0.2-1.4,0.6-1.9s0.9-0.8,1.3-1.1c0.2-0.1,0.3-0.3,0.3-0.5
		c0-0.6-0.8-1-2.5-1c-2.6,0-3.5,1.1-3.5,5.2v6.2c0,0.2,0,0.2,0.1,0.2h0.1l4.3,0h0.2c0.3,0,0.6,0.3,0.6,0.8
		C609.6,408.1,609.3,408.4,609,408.4z M627.7,414.5c-2,0-3.1-1.5-3.1-2.9c0-0.6,0.1-1.1,0.4-1.5c0.4-0.6,0.8-0.8,1.3-1.2
		c0.3-0.2,0.6-0.5,0.6-0.8c0-0.3-0.2-0.8-1.3-0.8c-3.1,0-4.5,4-4.5,6.8v12.6c0,0.4,0.1,0.6,0.7,0.6l2.7,0.1c0.4,0,0.7,0.3,0.7,0.6
		c0,0.4-0.3,0.7-0.6,0.7h-0.1c-1.5,0-4.7-0.1-6.5-0.1c-2,0-4.1,0.1-6.1,0.1h-0.1c-0.3,0-0.6-0.3-0.6-0.7c0-0.3,0.2-0.6,0.7-0.6
		l2.5-0.1c0.5,0,0.6-0.1,0.6-0.6v-17c0-0.8-0.4-1.3-1.3-1.3l-2.7-0.1c-0.4,0-0.6-0.3-0.6-0.7c0-0.3,0.2-0.7,0.6-0.7
		c2.2,0,7.1-0.2,9.5-0.4c0.4,0,0.6,0.2,0.6,0.6v0.3l-0.1,3.3h0.1c0.8-3.2,3-4.5,5.3-4.5c3.4,0,5,2.3,5,4.5
		C631.3,412.6,630,414.5,627.7,414.5z M657,426.3c-0.7,2.3-2,3-4.9,3c-1.4,0-2.8-0.2-3.7-0.6c-1.3-0.7-2.2-1.9-2.2-3.7h-0.1
		c-0.8,3-3.4,4.3-6.3,4.3c-4,0-6.1-2.3-6.1-5.2c0-3.1,1.8-5.1,4.4-6.1c2.3-0.9,5.5-1.7,6.9-2.2c1.2-0.4,1.2-0.8,1.2-1.5v-3.1
		c0-2.9-0.6-4-3.8-4c-1.9,0-4,0.6-4,1.4c0,0.4,0.3,0.5,0.6,0.7l0.4,0.2c1,0.7,1.6,1.7,1.6,2.7c0,2.3-1.7,3.3-3.5,3.3
		s-3.5-1.2-3.5-3.5c0-1.5,0.8-3.2,2.8-4.4c1.7-1.1,4.2-1.7,7-1.7c5.6,0,8.7,2.2,8.7,6.1v13.7c0,1.3,0.5,1.9,1.7,1.9
		c2.1,0,2.1-3.7,2.1-5c0-1.6,0-2.8,0-3c0-0.3,0.2-0.5,0.5-0.5c0.2,0,0.5,0.2,0.5,0.5c0.1,0.9,0.2,2.2,0.2,3.1
		C657.4,424,657.3,425.2,657,426.3z M685.2,428.7L685.2,428.7c-2,0-4.1-0.1-6-0.1c-1.7,0-4.1,0.1-5.6,0.1h-0.1
		c-0.3,0-0.6-0.3-0.6-0.7c0-0.3,0.2-0.6,0.6-0.6l1.8-0.1c0.4,0,0.5-0.1,0.5-0.7v-14.3c0-3.6-0.9-4.7-2.8-4.7c-2.9,0-4.7,4.1-4.7,7
		v12c0,0.5,0.1,0.6,0.6,0.7l1.8,0.1c0.4,0,0.6,0.3,0.6,0.6c0,0.4-0.3,0.7-0.6,0.7h-0.1c-1.5,0-3.7-0.1-5.5-0.1c-2,0-4.1,0.1-6,0.1
		h-0.1c-0.3,0-0.6-0.3-0.6-0.7c0-0.3,0.2-0.6,0.6-0.6l2.5-0.1c0.4,0,0.5-0.1,0.5-0.6v-17c0-0.8-0.4-1.3-1.3-1.3l-2.4-0.1
		c-0.4,0-0.6-0.3-0.6-0.7s0.2-0.7,0.6-0.7c2.2,0,6.8-0.2,9.2-0.4c0.4,0,0.6,0.2,0.6,0.6v3.4h0.1c0.6-1.9,2.8-4.3,6.4-4.3
		c4.5,0,7.2,2.9,7.2,6.9v13.7c0,0.5,0.1,0.6,0.5,0.6l2.5,0.1c0.4,0,0.7,0.3,0.7,0.6C685.8,428.4,685.5,428.7,685.2,428.7z
		 M707.3,419.6c0,2.7-1,5.8-3.1,7.8c-1.5,1.4-3.3,2-5.3,2h-0.5l-0.3,0.4c-0.1,0.2-0.2,0.3-0.2,0.4c0,0.1,0.1,0.2,0.3,0.3l0.5,0.1
		c2.1,0.6,3.3,2.2,3.3,3.9c0,1.9-1.7,4.1-6.1,4.1c-0.5,0-2-0.1-2.6-0.2c-0.4,0-0.5-0.3-0.5-0.6c0-0.3,0.2-0.5,0.6-0.5
		c0.2,0,0.6,0,0.9,0c2.4,0,3.2-0.8,3.2-2c0-0.8-0.5-1.9-2.1-2.1l-0.4,0c-0.2,0-0.4-0.2-0.4-0.4c0-0.1,0-0.2,0.2-0.4l2.3-3.1
		c-5.1-0.9-9.4-5.8-9.4-11.5c0-5.8,4.9-11.7,11.3-11.7c4.8,0,8,3.1,8,6.4c0,2-1.4,3.4-3.5,3.4c-2.4,0-3.5-1.6-3.5-3.3
		c0-1.1,0.6-2.3,1.6-2.8c0.6-0.3,0.8-0.6,0.8-1c0-0.6-0.7-1.7-3.3-1.7c-3.5,0-4.8,1.7-4.8,10.6c0,9.1,1.2,10.2,4.4,10.2
		c4.8,0,6.9-4.1,7.2-8.4c0-0.4,0.4-0.7,0.7-0.7C707,418.9,707.3,419.1,707.3,419.6L707.3,419.6z M733.5,426.3c-0.7,2.3-2,3-4.9,3
		c-1.4,0-2.8-0.2-3.7-0.6c-1.3-0.7-2.2-1.9-2.2-3.7h-0.1c-0.8,3-3.4,4.3-6.3,4.3c-4,0-6.1-2.3-6.1-5.2c0-3.1,1.8-5.1,4.4-6.1
		c2.3-0.9,5.5-1.7,6.9-2.2c1.2-0.4,1.2-0.8,1.2-1.5v-3.1c0-2.9-0.6-4-3.8-4c-1.9,0-4,0.6-4,1.4c0,0.4,0.3,0.5,0.6,0.7l0.4,0.2
		c1,0.7,1.6,1.7,1.6,2.7c0,2.3-1.7,3.3-3.5,3.3s-3.5-1.2-3.5-3.5c0-1.5,0.8-3.2,2.8-4.4c1.7-1.1,4.2-1.7,7-1.7
		c5.6,0,8.7,2.2,8.7,6.1v13.7c0,1.3,0.5,1.9,1.7,1.9c2.1,0,2.1-3.7,2.1-5c0-1.6,0-2.8,0-3c0-0.3,0.2-0.5,0.5-0.5s0.5,0.2,0.5,0.5
		c0.1,0.9,0.2,2.2,0.2,3.1C733.9,424,733.8,425.2,733.5,426.3z M748.3,428.7L748.3,428.7c-1.6,0-4.2-0.1-5.9-0.1
		c-2,0-4.4,0.1-6.4,0.1h0c-0.3,0-0.6-0.3-0.6-0.7c0-0.3,0.2-0.6,0.7-0.6l2.5-0.1c0.4,0,0.5-0.2,0.5-0.6v-17c0-0.8-0.3-1.3-1.2-1.3
		l-2.7-0.1c-0.4,0-0.6-0.4-0.6-0.7s0.2-0.7,0.6-0.7c2.9,0,7.5-0.1,9.6-0.4c0.4,0,0.5,0.2,0.5,0.6v19.6c0,0.4,0.2,0.6,0.6,0.6
		l2.4,0.1c0.4,0,0.7,0.3,0.7,0.6C748.8,428.4,748.6,428.7,748.3,428.7z M766.9,427.6c-1.4,1.2-3.4,1.8-5.6,1.8
		c-1.9,0-3.8-0.6-5.4-1.7c-0.6-0.5-0.8-0.6-1.1-0.6c-0.3,0-0.7,0.3-1,0.7l-1.3,1.6c-0.2,0.2-0.4,0.3-0.7,0.3c-0.2,0-0.5-0.1-0.5-0.5
		c0-0.5,0.3-1.8,0.3-4.4s-0.1-4-0.1-4.3c0-0.2,0.2-0.4,0.4-0.4c0.2,0,0.4,0.1,0.5,0.3c1.1,2.6,2.1,4.4,3.5,5.8c1.4,1.3,2.9,2,5.2,2
		c3.3,0,4.8-1.1,4.8-3.4c0-1.3-0.5-2.2-2.6-2.9c-2.7-0.9-5.3-1.4-8.2-2.3c-3.1-1-4-3.2-4-6.2c0-1.1,0.2-2.3,0.6-3.3
		c1.1-2.7,3.8-4.1,6.6-4.1c1.5,0,3.1,0.5,4.4,1.4l0.8,0.6c0.2,0.1,0.3,0.1,0.4,0.1c0.2,0,0.3-0.1,0.5-0.2c0.6-0.4,1.6-1.5,2-1.9
		c0.2-0.2,0.4-0.2,0.5-0.2c0.3,0,0.6,0.1,0.6,0.5c0,0.3-0.3,1.8-0.3,4c0,1.3,0.2,3.2,0.2,3.9c0,0.3-0.2,0.5-0.5,0.5
		c-0.2,0-0.4-0.1-0.5-0.3c-0.6-1.5-1-2.2-2-3.7c-1.5-2.4-4.1-3.4-6.1-3.4c-3.9,0-4.8,2.2-4.8,3.4c0,1.7,0.6,2.5,3.2,3.2
		c2.3,0.6,5.5,1.4,7.7,2c3.2,0.9,4.3,2.8,4.3,6.6C769.1,424.6,768.4,426.4,766.9,427.6z M776.8,429.4c-1.9,0-3.9-1.3-3.9-3.8
		c0-2.6,1.9-3.9,3.9-3.9s3.8,1.3,3.8,3.9C780.6,428.2,778.7,429.4,776.8,429.4z"/>
	<path class="st0" d="M506,418.5c-1.1,1-1.4,2.5-1.4,5.2c0,2.7,0.4,4.1,2,4.1c1.1,0,2.4-0.8,3.3-2.5c0.7-1.4,1.1-3.2,1.1-5.5v-3.6
		c-0.8,0.4-1.7,0.7-2.6,1S506.6,417.9,506,418.5z"/>
	<path class="st0" d="M422.4,408.1c-0.6-0.5-1.4-0.7-2.4-0.7s-1.8,0.2-2.4,0.7c-1.4,1.1-1.9,4-1.9,9.7s0.5,8.6,1.9,9.7
		c0.6,0.5,1.4,0.7,2.4,0.7s1.8-0.2,2.4-0.7c1.4-1.1,1.9-4.1,1.9-9.7S423.7,409.2,422.4,408.1z"/>
	<path class="st0" d="M394.9,398.8c-3.2,0-5.2,3.1-5.2,10.2c0,6.8,1.9,10.1,5.2,10.1c2.6,0,3.8-1.2,3.8-10.1
		C398.8,400,397.5,398.8,394.9,398.8z"/>
	<path class="st0" d="M641.2,418.5c-1.1,1-1.4,2.5-1.4,5.2c0,2.7,0.4,4.1,2,4.1c1.1,0,2.4-0.8,3.3-2.5c0.7-1.4,1.1-3.2,1.1-5.5v-3.6
		c-0.8,0.4-1.7,0.7-2.6,1S641.8,417.9,641.2,418.5z"/>
</g>
</svg>
